<svg id="Calque_1" data-name="Calque 1" xmlns="http://www.w3.org/2000/svg" viewBox="0 0 99.87 78.48"><defs><style>.cls-1{fill:#fff;}</style></defs><path class="cls-1" d="M94,39.76c-.11,1.84-.13,3.82-.38,5.78a22.68,22.68,0,0,1-3.79,10.4,12.39,12.39,0,0,1-2.62,2.74,4.61,4.61,0,0,1-6.91-1.13,13.89,13.89,0,0,1-2.21-5.7A25.15,25.15,0,0,1,78,42.07a10.35,10.35,0,0,1,1.83-4.27,5.09,5.09,0,0,1,3.62-2.18c1-.1,1.15.12.78,1-.46,1.16-1,2.29-1.4,3.47a21.09,21.09,0,0,0-.71,12.45,9,9,0,0,0,1.17,2.6,2,2,0,0,0,3.12.52,7.8,7.8,0,0,0,1.77-1.81,29.8,29.8,0,0,0,5-11.92A9.56,9.56,0,0,0,93,37.72c-.06-.22-.1-.44-.16-.65a.94.94,0,0,1,.49-1.13.78.78,0,0,1,1.08.21A10,10,0,0,1,95.78,38a18.3,18.3,0,0,1,2.16,7.4,35.71,35.71,0,0,1-1.77,13.72L96,59.7l.16.07,2.08-4.38a39.34,39.34,0,0,1-3,10.88,26.94,26.94,0,0,1-3.68,6.28,15.28,15.28,0,0,1-11.75,5.8,33.9,33.9,0,0,1-12.1-2c-4.6-1.51-9.12-3.25-13.72-4.76-2.62-.86-5.32-1.5-8-2.18a6.41,6.41,0,0,0-1.86-.1c-.6,0-.74.42-.31.85a7.82,7.82,0,0,0,1.36,1.07,46.82,46.82,0,0,0,9.41,4.17,87.42,87.42,0,0,0,18.81,4.37,32.41,32.41,0,0,0,12.17-.58,11,11,0,0,0,4.56-2.43,27.36,27.36,0,0,1,2.16-1.7,3.85,3.85,0,0,1,1.07-.54,1,1,0,0,1,1.53,1A2.86,2.86,0,0,1,94.47,77a7,7,0,0,1-4.32,3,8.37,8.37,0,0,0,3.13-3.59,4.68,4.68,0,0,0,.25-1.06,3.42,3.42,0,0,0-1.09.27,31.86,31.86,0,0,0-2.83,1.91,18.25,18.25,0,0,1-8,3.28,44.28,44.28,0,0,1-13.93,0A61,61,0,0,1,54.29,77.8a29.07,29.07,0,0,1-10.17-6,10.35,10.35,0,0,1-2.57-3.57c-.89-2.22,0-3.75,2.32-4.13a12.11,12.11,0,0,1,6,.78c2.29.81,4.52,1.79,6.77,2.71a54.05,54.05,0,0,0,12.9,3.68,28.1,28.1,0,0,0,12.6-.69A14.79,14.79,0,0,0,92.87,58.36a73.87,73.87,0,0,0,1.38-16c0-.85-.12-1.69-.19-2.53C94.05,39.77,94,39.69,94,39.76Z" transform="translate(-0.06 -10.76)"/><path class="cls-1" d="M19.28,81.5C11.06,73.81,6.69,64.32,5.2,53.39l-.19,0c.06,1,.1,2.07.2,3.1s.24,2,.36,3c-.73-1.16-2.22-7.09-2.63-11a55.33,55.33,0,0,1,.29-11.36L2.32,42.3c0-1.75-.07-3.37,0-5a55.82,55.82,0,0,1,2.9-15.13,53.58,53.58,0,0,1,4.18-9.34,3.89,3.89,0,0,1,4-2.07,3.82,3.82,0,0,1,3.42,2.86,5.2,5.2,0,0,1-.56,4c-1.1,2-2.23,4-3.18,6.12A55.89,55.89,0,0,0,8.13,45.08,57.29,57.29,0,0,0,19,81C19.05,81.14,19.13,81.27,19.28,81.5Z" transform="translate(-0.06 -10.76)"/><path class="cls-1" d="M44,73.63c5.41,4.65,12,6.42,18.74,7.83a49.77,49.77,0,0,0,15.92.8,31.07,31.07,0,0,0,7.42-1.69l.63-.22c-.15.17-.18.24-.24.29a45.22,45.22,0,0,1-15.3,7.78c-7.42,2-14,.18-20-4.34a19.21,19.21,0,0,1-7-9.63L44,73.8A1,1,0,0,1,44,73.63Z" transform="translate(-0.06 -10.76)"/><path class="cls-1" d="M15.64,55.55l-1.08-3.08c0,5.46,5.85,12,12.87,13-4.05.64-10.26-2.24-13.2-6.31-3.38-4.68-4.2-9.7-1.51-15-1.45.85-2.43,4.43-2.39,8.65-.13-.51-.29-1-.39-1.54a18,18,0,0,1,8.92-19.5A4.24,4.24,0,1,1,23,39.16a13.86,13.86,0,0,0-7.51,10.11A16.21,16.21,0,0,0,15.64,55.55Z" transform="translate(-0.06 -10.76)"/><path class="cls-1" d="M36.06,37.48a16.44,16.44,0,0,1,1.3-1.41c.56-.46,1-.33,1.11.38a16,16,0,0,1,.3,2.38c.13,2.34.2,4.69.32,7a19,19,0,0,0,1.67,6.78c.44,1,.85,2,1.19,3a1.78,1.78,0,0,1-.13,1.15c-.42.9-1.22.94-1.74.12A16.2,16.2,0,0,1,38,51.08c-.38-1.88-.63-3.78-1-5.68,0,.43,0,.86,0,1.28,0,2.84,0,5.68-.15,8.51a24.09,24.09,0,0,1-.53,3.56,3.9,3.9,0,0,1-.6,1.33,2,2,0,0,1-2.27.91A6.61,6.61,0,0,1,29,57.62,14.56,14.56,0,0,1,27,51a22.92,22.92,0,0,1,2-11.48,9.49,9.49,0,0,1,3.09-3.89A2.41,2.41,0,0,1,36,37.2C36,37.28,36,37.37,36.06,37.48Zm-.35,1.41-.18-.17a1.71,1.71,0,0,1-.23.47,19.37,19.37,0,0,0-4.74,12.16,15.57,15.57,0,0,0,.93,6.38,5.41,5.41,0,0,0,1.75,2.56c1.08.79,2,.52,2.38-.74a2.75,2.75,0,0,0,.18-.84c0-2.21.12-4.41.07-6.62-.09-3.32-.29-6.64-.38-10A32.05,32.05,0,0,1,35.71,38.89Z" transform="translate(-0.06 -10.76)"/><path class="cls-1" d="M72.78,47c-.37,1.51-.69,3-1.1,4.53-.64,2.32-1.3,4.64-2,6.93a6.92,6.92,0,0,1-1.19,2.07,2.12,2.12,0,0,1-2.87.6,6.84,6.84,0,0,1-3.61-5,18.75,18.75,0,0,1,1-10.45A18.17,18.17,0,0,1,67.61,38a10.64,10.64,0,0,1,2.72-1.78,2.34,2.34,0,0,1,3.4,2.33V39A10.5,10.5,0,0,1,75,38a1.42,1.42,0,0,1,1-.15c.2.09.32.63.28.94-.3,1.91-.62,3.83-1,5.73A27,27,0,0,0,74.51,52c.14,1.63.48,3.26.71,4.89a3.36,3.36,0,0,1,0,1.26,2.1,2.1,0,0,1-.67,1.08c-.67.51-1.12.34-1.39-.46a18.36,18.36,0,0,1-.72-7.14c.09-1.55.26-3.1.39-4.65Zm.3-6.8s-.07,0-.09,0a.91.91,0,0,0-.17.09,19.57,19.57,0,0,0-8.08,12.95A11.17,11.17,0,0,0,65,59a5.16,5.16,0,0,0,1.18,1.81A1.11,1.11,0,0,0,68,60.58a4.67,4.67,0,0,0,.73-1.42c.5-1.9,1-3.8,1.38-5.72.71-3.4,1.32-6.83,2-10.23C72.36,42.18,72.76,41.18,73.08,40.17Z" transform="translate(-0.06 -10.76)"/><path class="cls-1" d="M57.28,36.19a7.66,7.66,0,0,0-3.81,2.26c.3-.08.42-.1.53-.14,1-.33,2-.75,3-1a3.25,3.25,0,0,1,4,2.41,4.79,4.79,0,0,1,0,3,2.26,2.26,0,0,1-1.36,1.47,1.73,1.73,0,0,1-2.41-1.09l-.14-.38a2.53,2.53,0,0,0-4-1.29,10.5,10.5,0,0,0-4.26,6.44,22.87,22.87,0,0,0-.36,7.52c.09,1.33.17,2.67.2,4,0,1-.33,1.47-1,1.64a1.86,1.86,0,0,1-2.13-.87,12.6,12.6,0,0,1-1.25-4.41,46.75,46.75,0,0,1,.71-15.38,11.61,11.61,0,0,1,1-2.81,3.3,3.3,0,0,1,3.59-1.9c.58.06.85.36.72.94a7,7,0,0,1-.56,1.71,17.46,17.46,0,0,0-1.76,7.36,32.18,32.18,0,0,0,.09,4.16c.15-.73.29-1.45.47-2.17a29.18,29.18,0,0,1,3.51-8.43,9.69,9.69,0,0,1,1.5-1.87A4.39,4.39,0,0,1,57.28,36.19Z" transform="translate(-0.06 -10.76)"/><path class="cls-1" d="M4.07,66.13C.72,59.58-.84,52.73.6,45.38.49,52.5,2,59.36,4.07,66.13Z" transform="translate(-0.06 -10.76)"/><path class="cls-1" d="M17.5,50.8a12.12,12.12,0,0,0,4.76,9.12C19,59,16.55,54.48,17.5,50.8Z" transform="translate(-0.06 -10.76)"/><path class="cls-1" d="M60.27,52a11.87,11.87,0,0,0,2.78,8.75A9.16,9.16,0,0,1,60.27,52Z" transform="translate(-0.06 -10.76)"/><path class="cls-1" d="M99.79,48.18A23.65,23.65,0,0,0,98.25,39,14.69,14.69,0,0,1,99.79,48.18Z" transform="translate(-0.06 -10.76)"/><path class="cls-1" d="M50.16,48.48c.25-2,.59-3.92,2.46-5.13C51.09,44.72,50.79,46.68,50.16,48.48Z" transform="translate(-0.06 -10.76)"/><path class="cls-1" d="M87.34,66.39a9.29,9.29,0,0,1-4.63,2.79Z" transform="translate(-0.06 -10.76)"/><path class="cls-1" d="M40.36,36.47a2.53,2.53,0,0,0-2.9-1.82C38.82,34,40.19,34.84,40.36,36.47Z" transform="translate(-0.06 -10.76)"/></svg>