<svg id="Calque_1" data-name="Calque 1" xmlns="http://www.w3.org/2000/svg" viewBox="0 0 973.91 912.19"><defs><style>.cls-1{opacity:0.05;}</style></defs><g class="cls-1"><path d="M948.61,643.27c6.42,3.11,12.32,5.65,17.9,8.76,7,3.88,13.73,8.1,20.39,12.46a10.32,10.32,0,0,1,3.73,4.94c.85,2.39-.38,4.47-3.19,4.37-21-.71-40.6,5.77-60.6,10.61-21.79,5.28-43.05,4.15-63.5-6.56-6-3.15-13.23-4.35-20.05-5.53a31.2,31.2,0,0,0-21.65,3.83c-7.3,4.29-14.88,8.1-22.31,12.17-4,2.15-7,1.39-9-2.51-1.86-3.68-.55-6.26,3-8.17,8.32-4.52,16.53-9.26,24.86-13.75,8.54-4.6,15.71-10.59,20.36-19.24,14.52-27,39-37.67,67.82-41,20.81-2.39,41.5-1.55,61.83,4,3.67,1,7.18,2.57,10.78,3.83,4.25,1.5,4.68,2.72,1.43,5.58-6.74,5.94-13.62,11.72-20.52,17.47C956.33,637.46,952.63,640.16,948.61,643.27Zm28.85,24.14c-2.25-.51-4.68-.63-6.71-1.6-8.83-4.21-17.49-8.76-26.31-13-4.63-2.22-10.66-.2-13.46,3.65l26.17,9.72-.45,1.36c-2.38-.58-4.82-1-7.13-1.76-6.6-2.25-13.11-4.75-19.73-6.92-1.68-.56-3.65-.26-5.48-.35l-.21,1.69,21,9.4a6.9,6.9,0,0,1-4.34,0q-7.64-3-15.14-6.3c-3.51-1.53-6.68-1.79-9.5,1.74l20.93,7.1c-.13.52-.27,1-.4,1.56-4.66-1.17-9.41-2.07-14-3.56-6.94-2.26-13.76-5-20.31.88.36.55.85,1.29,1.19,1.79l-8.29-1.29c-.15.81-.29,1.62-.44,2.43l16.71,3.65c-.09.35-.17.7-.26,1.06L886.28,674l-.24,1.27,5.26,2.37c-6,.48-10.92-4.76-17.17-1.94,2.88,1.6,5.82,3.18,9,3.7a110.39,110.39,0,0,0,43.93-1c15.78-3.69,31.13-9.77,47.74-9.36.83,0,1.69-1.19,2.53-1.82l4.85,1.25c-10.7-9.52-21.36-16.31-33.6-20.61-2.78-1-4.7-.94-5.67,1.62,3.74,1.83,7.29,3.47,10.75,5.28C961.58,659,969.51,663.21,977.46,667.41ZM971.23,616c-7.58.56-14.87.76-22.06,1.7-8.2,1.08-16.33,4-24.45,3.86-6.6-.1-11.87,2.14-17.49,4.36-2.61,1-5.16,2.23-7.77,3.29-12.28,5-25.05,9-36.76,15.1C840.92,655.56,819.76,668,798.36,680a39.82,39.82,0,0,0-3.92,2.84l1,1.46c3.82-2.13,7.66-4.22,11.45-6.42,14.3-8.28,29.39-13,46.13-10.34,4.1.64,8.16,1.56,12.28,2,30.66,3.27,54.87-11.77,78.09-28.51C953.22,634,961.54,624.81,971.23,616Zm-61.32-6.14-19.86,19.29c9.12-2.08,10.06-2.63,15-8.2,5.84-6.58,12.75-10.29,18.53-9.76-2.23,1.75-4.36,3.29-6.35,5s-3.81,3.58-5.71,5.38l1.32,1.6c5.53-3.59,11.06-7.18,16.48-10.68-.16.44-.36,1-.76,2.16l7.31-2.64.19.6-5.76,3.18.37.87,33-3.78c0-.55-.06-1.1-.1-1.64-7.75-.63-15.5-1.29-23.25-1.87-15-1.11-29.94-2.4-45,1.14-20.19,4.75-37,14.33-49.44,31.15-3.15,4.26-6.93,8.06-10.42,12.08l1,1c3-2.53,6-5,8.87-7.59,4.5-4.07,8.94-8.21,13.37-12.36,3.94-3.69,7.84-7.44,11.76-11.17l.52.62L856.84,641.5l1.35,1.4c3.19-2.67,6.92-4.9,9.46-8.09,7-8.76,16.49-14,25.48-20l-24.22,22.39,1.24,1.53c3.18-2,6.65-3.64,9.48-6,6.29-5.37,12-11.39,18.46-16.59C901.29,613.5,905.48,612.11,909.91,609.82Z" transform="translate(-16.98 -62.83)"/><path d="M939.4,638.13l-27.91-9.24c13-3.61,22.14,5.54,33.15,6.54-9,6.5-17.35,14.42-29.88,12l-30-5.68c6.47-3.26,12.29-2,18-.77,6.48,1.35,12.86,3.2,19.36,4.38,2.17.4,4.59-.63,6.89-1,0-.49.07-1,.11-1.47l-23.43-8.3c4.08-1.8,7.61-1.73,13.73.73,3.7,1.49,7.25,3.31,10.91,4.9S937,641,939.4,638.13Z" transform="translate(-16.98 -62.83)"/><path d="M911.07,656.9c-16.57,8.31-29.88-3.49-44.68-6.41.11-.56.21-1.13.32-1.7,6.27,1.26,12.6,2.32,18.81,3.86,4.32,1.07,8.38,3.34,12.73,4.09C902.41,657.46,906.79,656.9,911.07,656.9Z" transform="translate(-16.98 -62.83)"/><path d="M919.49,652.67c-15.61,3.42-28.54-3.54-42.08-6.45l.28-1.63Z" transform="translate(-16.98 -62.83)"/><path d="M851.29,655.14c12.79-3.18,25.12,4.67,38.39,6.9-.11.6-.23,1.21-.34,1.81-7.19-1.42-14.41-2.67-21.56-4.29C861.84,658.21,856,656.42,851.29,655.14Z" transform="translate(-16.98 -62.83)"/><path d="M872.82,666l-32-4.54C851.51,662.84,863,658.42,872.82,666Z" transform="translate(-16.98 -62.83)"/><path d="M954,628.41l-20.84-3.79C940.49,622.59,946.8,624.32,954,628.41Z" transform="translate(-16.98 -62.83)"/><path d="M920.7,677,908,672.6c.17-.5.34-1,.5-1.51l12.7,4.31C921.05,675.91,920.88,676.43,920.7,677Z" transform="translate(-16.98 -62.83)"/><path d="M208.77,785.8c9.43-2.45,17.87-1.64,23.07,8.3.44.85,2.23,1.25,3.44,1.39,12,1.43,15.43,4.3,19,16.35a89.3,89.3,0,0,1,9.1,0c7.1.71,13,3.28,15.94,10.56.55,1.38,2.71,2.38,4.34,3,10,3.9,20.79,6.47,30,11.73,12.83,7.3,13.65,18.67,4.47,30.31a29.47,29.47,0,0,0-4.93,10.84c-4.63,18.06-11.29,35.2-21.34,51-15.54,24.42-36.72,39.8-66.2,43.23-31.49,3.66-62.71,3.7-93.77-3.33-24.71-5.6-41.48-21-53.34-42.61-9.73-17.75-16.2-36.69-20.85-56.33a23.79,23.79,0,0,0-3.38-7.84c-5.92-8.72-5.37-16.8,3.7-22.12,8-4.7,17.2-7.57,26.06-10.68,4-1.39,6.72-2.37,8.28-7.13,2.56-7.83,9.43-11.15,17.42-11.9,2.23-.21,4.5,0,7,0,.67-2.37,1.28-4.45,1.85-6.55,1.46-5.35,4.83-8,10.47-7.35,5.86.65,10.32.33,14.74-5.61,2.92-3.92,10.57-5.13,16.32-5.82,2.92-.36,5,0,7.31-2.5C179.49,769.67,198.59,771.08,208.77,785.8ZM74.64,893.22l-1.66,1c5.63,11.14,10.72,22.61,17,33.35,9.64,16.39,23.34,27.81,42.42,32.33,27.15,6.44,54.54,7.75,82.21,5.24,25.44-2.31,48.39-9.78,63.6-32.19,5.18-7.64,10.47-15.36,14.38-23.66,5-10.57,8.61-21.76,12.7-32.38-11.47,3.39-21.84,7.62-32.62,9.36-17.82,2.87-35.86,4.62-53.88,6-35.1,2.59-70.16,1.6-104.75-5.25-15.88-3.15-31.37-8.23-46.66-12.33,2.68,20.36,20.65,25.83,36.88,33.82C91.5,908.44,83.5,900,74.64,893.22Zm6.59-38.58c3.62,1.33,6.44,3,9.42,3.37,27.94,3.77,55.83,8.69,83.91,10.49,20.84,1.34,42-.69,62.89-2.65,14.49-1.36,28.79-5,43.08-8,2.67-.58,7.18-4,6.9-4.9-.94-3.19-3.07-6.78-5.82-8.46-2.51-1.54-6.42-1-9.71-1-1.89,0-3.77.86-7.19,1.71,2.15-2.38,3.25-3.46,4.19-4.66,4.46-5.66,5.36-14.75,1.82-18-6.2-5.74-14.3-5.18-20.69,1.27a40.17,40.17,0,0,1-5.18,3.77c4.18-10.79,4.21-17.25-.92-22.13-5.62-5.34-11.69-3.51-17.73-.24,1-10.7-7.11-17.9-17.62-14.82-4.66,1.36-6.06-.09-7.89-3.27-4.32-7.5-8.3-8.93-16.81-7.37a25.22,25.22,0,0,0-17.32,11.56c-7.13.69-13.27-.37-17,2.14-3.37,2.24-4.11,8.41-6.05,12.91-5.12-2.05-12.21-7.24-18.72-2.1s-.13,10.46,3.11,15.67c-11.42-5.95-21.7-5.32-29.24,4.92-5.28,7.17-.46,13.54,4.88,20.06C91.83,838.09,86.05,843.89,81.23,854.64ZM280,834.23c6.76,2.86,13.29,5.78,14.71,14.88l2.94-3.94c1,2.78,1.87,5.15,2.76,7.62l3.61-3.42,1.47,1.36c-1.32,1.64-2.31,3.94-4,4.8-8.37,4.21-16.57,9.74-25.51,11.66a491.43,491.43,0,0,1-54.84,8.24c-41.76,4.12-83.08-.84-124.13-8.14-12-2.13-24.4-5-27.46-19L75,842.56c-.24,2.2-.41,3.71-.77,7l7.55-10.06-1-1.39c-5.35,2.66-11,4.87-16,8.09-6.56,4.24-6.82,10.35-.54,14.91a66.23,66.23,0,0,0,14.91,7.76c24.27,9.39,49.76,13.58,75.49,14.75,26.85,1.22,53.83.94,80.7,0,21.46-.76,42.8-4.17,62.53-13.36,5.91-2.76,11.07-7.5,15.92-12,3.5-3.27,2.66-7.69-.77-10.85C303.81,838.82,292.29,835.72,280,834.23Z" transform="translate(-16.98 -62.83)"/><path d="M274.3,893.4,261.37,896c-.11-.62-.23-1.25-.35-1.87,6.49-1.12,13-2,19.44-3.42,6.2-1.35,12.29-3.2,19-3.32l-33.41,12.5c-.29-.74-.58-1.48-.86-2.23l9.84-3.45C274.79,893.92,274.54,893.66,274.3,893.4Z" transform="translate(-16.98 -62.83)"/><path d="M219.61,958.84,259,946.08C246.77,955.05,233.71,958.65,219.61,958.84Z" transform="translate(-16.98 -62.83)"/><path d="M287.46,912.85c-11.52,10.81-22.9,20-37.58,21.55Z" transform="translate(-16.98 -62.83)"/><path d="M273.74,935l-32.08,13.75-.89-2.06L273,933.16Z" transform="translate(-16.98 -62.83)"/><path d="M291,898.2l3.66-.89c-6.55,8.78-21.41,15-34.54,14.18,11.25-2.26,22.35-4.88,30.9-13.28Z" transform="translate(-16.98 -62.83)"/><path d="M291,898.21l-34.1,11.28-.52-1.64c10.21-3.38,20.4-6.81,30.65-10.06,1.16-.37,2.62.24,4,.4Z" transform="translate(-16.98 -62.83)"/><path d="M96.5,927.49l22.78,15.1-.91,1.4L95.31,928.9Z" transform="translate(-16.98 -62.83)"/><path d="M277.39,914l-22,5.68c-.18-.69-.36-1.38-.53-2.08l22.13-5.3C277.1,912.9,277.24,913.46,277.39,914Z" transform="translate(-16.98 -62.83)"/><path d="M272.27,919.82l-21.44,8-.66-1.75,21.09-7.83C271.6,918.78,271.94,919.3,272.27,919.82Z" transform="translate(-16.98 -62.83)"/><path d="M200.76,801.8l-9.41,3.81c.47-5.5,3.26-7.53,8.87-6.86,13.21,1.58,17,5.59,15.69,16.39Z" transform="translate(-16.98 -62.83)"/><path d="M239.38,844.49l-14.9-8.08c3.49-3.39,7-5.25,11.2-2.31C238.9,836.36,242.31,839,239.38,844.49Z" transform="translate(-16.98 -62.83)"/><path d="M228.59,823.36c-3.55.23-5.78.49-8,.49-1.36,0-3.76-.17-3.88-.68-.34-1.46-.18-4.25.55-4.54,3.14-1.22,6.56-1.73,9.88-2.5C227.69,818.89,228.24,821.66,228.59,823.36Z" transform="translate(-16.98 -62.83)"/><path d="M168.11,837.54l-14.16,3c.24-3.95,1.47-8.39,7.21-8.48,2.64,0,5.32,1.93,8,3Z" transform="translate(-16.98 -62.83)"/><path d="M155.45,814.78c-.79-4.24,1.85-6,6.41-6,4.94,0,7,2.59,6.63,7.73Z" transform="translate(-16.98 -62.83)"/><path d="M198.28,840.13l-11.39-3.24-.3-1.74c3.81-.43,7.62-1,11.44-1.14.72,0,2.31,2,2.1,2.75A11,11,0,0,1,198.28,840.13Z" transform="translate(-16.98 -62.83)"/><path d="M218.15,852.81l4.83,5.27c-1.21,1.06-2.6,3.16-3.61,3-2.76-.47-5.37-1.89-8-2.94l3.15-7.14Z" transform="translate(-16.98 -62.83)"/><path d="M183.57,819.05c1.51-1.59,4.16-5.64,5.21-5.26,3.12,1.13,5.62,4,8.35,6.19l-.95,1.36Z" transform="translate(-16.98 -62.83)"/><path d="M239.77,847.77c2.5,1.16,5.66,1.78,7.22,3.7.79,1-1.33,4.3-2.38,7.25L239,850.2C239.26,849.39,239.51,848.58,239.77,847.77Z" transform="translate(-16.98 -62.83)"/><path d="M174.69,801.79c3.25-3.16,5.2-6.66,7.75-7.18,3.51-.71,4.59,6.08,1,7.08C181.37,802.26,179,801.79,174.69,801.79Z" transform="translate(-16.98 -62.83)"/><path d="M176.19,859.23a28.07,28.07,0,0,0-3.81-2.62,42.21,42.21,0,0,0-4.77-1.56c1.36-1.23,2.88-3.62,4-3.44,2,.29,3.91,2,5.45,3.51C177.55,855.57,176.62,857.43,176.19,859.23Z" transform="translate(-16.98 -62.83)"/><path d="M254.17,835.23c5.78,6,5.54,8-.3,10.77-.12-1.24-.26-2.48-.39-3.71l-2.3,0C252.08,840.14,253,838,254.17,835.23Z" transform="translate(-16.98 -62.83)"/><path d="M120.44,851.06l-7.13,5c-.58-1.44-2-3.89-1.61-4.15a49.75,49.75,0,0,1,6.79-4Z" transform="translate(-16.98 -62.83)"/><path d="M142.87,821.72,132.82,828c1.49-3.68,1.83-6.71,3.51-8,1.42-1.11,4.4-.23,6.69-.23Z" transform="translate(-16.98 -62.83)"/><path d="M131.85,853.43c2.82-2.07,4.61-4.24,6.74-4.66,1.48-.28,3.42,1.86,5.16,2.92l-.79,1.74Z" transform="translate(-16.98 -62.83)"/><path d="M740.71,781.91c34.82,1,61.21,11.71,78.55,37.85,18.38,27.71,17.81,57.68,3.34,86.86-30.72,61.93-103.37,62.59-139.49,32.2-27.37-23-38-53.36-30.28-88.05,7.55-34,30.71-55,63.9-64.54C725.72,783.64,735.24,782.86,740.71,781.91Zm-2.62,152.87c34.48.31,63.47-16.35,76.78-43.89,10.79-22.34,13.52-45.68-1.69-67.38-34.71-49.5-115.08-45.36-145.26,7.16-18.7,32.54-9.9,69.1,21.57,89.45C705.34,930.37,723,934.28,738.09,934.78ZM672,915.42c21,30.55,51.92,39.83,87,33.68,27.47-4.8,51.23-28.84,59.25-51.09C791.84,946.78,720.66,956.06,672,915.42Z" transform="translate(-16.98 -62.83)"/><path d="M672.64,863.94c-1.45-29.27,31.17-59.74,58.53-63.25,24.94-3.21,45.86,2.24,63,21.31,12.12,13.49,16.12,28.62,12.48,46.2C801,895.73,780,917.64,752.77,921.34a81,81,0,0,1-64.54-18.59C676.6,893,672.46,879.05,672.64,863.94ZM742,805.46c-23.29-1.88-55.37,22.4-60.72,43.89-4.38,17.58-3,34.87,10,47.16,16.6,15.79,38.45,21,61.25,18.76,18-1.73,30.57-13.48,39.89-27.5,8.19-12.32,13.47-26.86,9-42.08C794.18,821.08,767.76,803.69,742,805.46Z" transform="translate(-16.98 -62.83)"/><path d="M775.07,939.62c-13,8.82-35.93,11.24-56.37,6.16C737.87,947.42,757.07,949.28,775.07,939.62Z" transform="translate(-16.98 -62.83)"/><path d="M740.86,943.91l-30.51-3.51.18-1.58,30.68,4.06Z" transform="translate(-16.98 -62.83)"/><path d="M692.72,875.09c-5.47-9.8.47-11.26,7.06-11.31,4.24,0,9.54.05,12.36,2.45,1.88,1.59.61,7.4,0,11.21a13.42,13.42,0,0,1-3.29,7.19c-1.9,1.89-4.93,3.56-7.49,3.59-1.91,0-4.28-2.41-5.67-4.31-2-2.77-3.35-6-5-9.1Zm7.24-8.61-2,2,.79,10.47c7.33-.84,12.16-4.6,10.26-7.92C707.62,868.56,703.09,867.92,700,866.48Z" transform="translate(-16.98 -62.83)"/><path d="M755.84,850.23c-.82-4.57-2.31-8.89-2.17-13.16.18-5.53,3.5-9.91,9.11-11s9,2.13,11.36,7.21c4.58,9.77,1.2,15.94-9.82,16.91C761.89,850.41,759.42,850.23,755.84,850.23Zm6.51-16.75c-5.68,4.12-5.61,8.51.27,11.15,1.72.77,7.08-2,7.62-4C772.12,833.6,764.92,835.53,762.35,833.48Z" transform="translate(-16.98 -62.83)"/><path d="M728.82,817c4.75,0,8.87,4.66,9.09,10.32.17,4.3-7.85,14.22-11.53,14.27-5.39.09-12.6-7.38-12.49-12.92C714,822.42,720.89,817.05,728.82,817Zm-.61,4.9c-5.55,1-8.94,2.48-8.22,7,.39,2.42,3,4.47,4.69,6.69,2.72-2.15,6.17-3.88,7.79-6.67C733.12,827.76,729.75,824.31,728.21,821.91Z" transform="translate(-16.98 -62.83)"/><path d="M714.21,896.62c2.28-4.35,4-9.16,7-12.84a13.39,13.39,0,0,1,9.12-4.54c2.42,0,5.53,3,7.14,5.44,4.17,6.33-2.76,8-5.65,10.86C726.14,901.17,718.43,901.3,714.21,896.62Zm4.95-3.34,2,2.14L733,888.7l-.06-2.17c-2.08-1.07-5.47-3.51-6-3C723.93,886.38,721.66,890,719.16,893.28Z" transform="translate(-16.98 -62.83)"/><path d="M771.33,882.48c-4.44.71-8.22-.52-8.57-6.24-.28-4.56,6.63-10.66,11.8-10.78,5.65-.14,11.24,4.93,11.13,10.08C785.58,880,781.09,882.27,771.33,882.48Zm9.77-7.72.3-1.9c-2-1.38-4.08-3.94-6-3.85-2.4.1-4.71,2.41-7.06,3.77,2.38,1.31,4.64,3.16,7.18,3.74C777.14,876.89,779.21,875.41,781.1,874.76Z" transform="translate(-16.98 -62.83)"/><path d="M751.66,887.65c4.73,2.74,9,4.06,11.1,6.94,1,1.32-2.06,5.8-3.64,8.65-.44.81-2.16,1.31-3.28,1.28-4-.1-8.07-.51-12.11-.76-3.5-.22-5.56-2.74-3.67-5.22C743.12,894.51,747.47,891.46,751.66,887.65ZM746,896.93c5.25,3.87,8.24,3.73,10.75-.45C753.2,895.36,749.76,891.09,746,896.93Z" transform="translate(-16.98 -62.83)"/><path d="M693.52,852.21c-.84-6.17,1.55-10.91,6.75-12.57,2.3-.74,6.54,1.85,8.63,4.1,1.37,1.47,1.61,6.06.35,7.52C704.62,856.63,699,854,693.52,852.21Z" transform="translate(-16.98 -62.83)"/><path d="M725,866.22c-3.26-2.91-6.48-4.5-7.43-7-1.2-3.12,4-7.48,8-7.55,4.48-.09,10.42,4.49,8.84,7.26S728.82,863.45,725,866.22Z" transform="translate(-16.98 -62.83)"/><path d="M756.89,869.41c-1.3,2.24-3,3.93-3.22,5.77-.58,5.86-4.41,6.57-8.74,5.57-4.5-1-7.8-6.93-6.54-10.44,1.41-3.9,8-6.67,12-4.84A64.48,64.48,0,0,1,756.89,869.41Zm-5,1.75-1.7-2.91-7.66,3.26c1.12,1.17,2.63,3.52,3.3,3.3C748,874.09,749.84,872.45,751.84,871.16Z" transform="translate(-16.98 -62.83)"/><path d="M784.47,844.09c3.16,4.7,6.1,7.46,6.78,10.7.4,1.9-2.34,5.78-4.49,6.59-3.33,1.24-10.62-4.65-9.59-7.29C778.35,851,781.07,848.58,784.47,844.09Z" transform="translate(-16.98 -62.83)"/><path d="M748.48,817.57,744,815.41l.51-1.16h13.91l1.09,2a110.72,110.72,0,0,1-9.46,6.75c-.7.4-2.58-1.22-3.91-1.91C746.94,819.91,747.72,818.72,748.48,817.57Z" transform="translate(-16.98 -62.83)"/><path d="M774.38,894.05l-14.88-6.54c1-1.15,1.5-2.06,1.78-2,4.59,1,9,4,14,1,.1-.06,1.73,1.59,1.57,2.08A47.19,47.19,0,0,1,774.38,894.05Z" transform="translate(-16.98 -62.83)"/><path d="M364.2,360.48c1.14-17.11,1.11-35.08,3.75-52.65,5-33,13.55-65.22,26.8-96.11,6.07-14.13,12.27-28,21.08-40.72,6.18-8.92,14.17-14.12,24.89-15.43,8.81-1.08,23.65,6.48,26.73,14,5.58,13.63,4.15,26.71-3.49,39.16a328.75,328.75,0,0,0-28.84,60.94,450.17,450.17,0,0,0-19.06,68.63,296.87,296.87,0,0,0-4.71,47.6,3.31,3.31,0,0,0,.25,1.83c1,1.34,2.11,2.56,3.19,3.83.76-1.32,1.84-2.54,2.24-4,2.76-9.92,4.86-20.06,8.17-29.79,3.93-11.56,12.27-20.45,19.95-29.68a136.74,136.74,0,0,1,28.94-26.57c6.33-4.24,13.26-7.19,21.24-7.54,9.93-.43,17.87,3.78,24.13,10.53,8.07,8.72,10.27,19.26,6,30.78-3,8.15-9.06,13.65-16,18.34-4,2.75-8.29,5.21-12.56,7.61-7.4,4.15-12.44,10.56-17.47,17.15a102.47,102.47,0,0,0-18.35,37.72c-3,12-2.62,24.43-.41,36.67.84,4.61,2.28,9.11,3.08,13.73a41.7,41.7,0,0,0,11.56,22.12c5.2,5.41,10.44,10.8,15.9,15.95,9.38,8.85,20.78,14.08,33,17.86,6.81,2.11,13.58,4.18,20.83,3.6,2-.16,3.94-.56,5.91-.54.85,0,2.35.74,2.41,1.26.09.91-.5,2.53-1.18,2.76-3.21,1.11-6.5,2.36-9.84,2.64-9.66.8-19.13-1-28.52-3-18.08-3.91-34.7-11.05-49.21-22.66A112.25,112.25,0,0,1,428.54,456c-.66-1.85-1.46-3.16-3.87-3.36a5.11,5.11,0,0,1-3.63-2.81c-1.56-4.72-2.69-9.58-3.83-14.42-.55-2.33-.61-4.77-1.21-7.08a3.31,3.31,0,0,0-2.12-1.76c-.33-.11-1.3,1.06-1.57,1.8a7.55,7.55,0,0,0-.36,3.07c.51,7.8.58,15.69,1.75,23.4,1.83,11.94,4.7,23.71,6.63,35.64,4.83,29.77,16.1,57.23,28.86,84.3a400.36,400.36,0,0,0,24.32,45.12c3.57,5.6,8,10.64,12.08,15.94a20.84,20.84,0,0,1,2.78,3.74c.47,1,.66,3.15.14,3.48a5.19,5.19,0,0,1-3.92.37,9,9,0,0,1-3.21-2.43c-5.65-5.54-11.66-10.78-16.79-16.78-7.57-8.84-14.61-18.14-21.65-27.41-6.55-8.61-13.72-16.93-19-26.3-9-16-17.11-32.46-23-49.9-2.31-6.8-4.36-13.7-6.67-20.5-.83-2.45-1.24-5.21-4.91-5.68-1.18-.15-2.47-2.48-3-4-2.63-7.56-5.46-15.1-7.4-22.85-3-11.93-5.92-23.92-7.72-36.06-2.56-17.21-4.16-34.56-6-51.87C364.6,373.52,364.56,367.34,364.2,360.48Zm129-8.88.06.08a48.08,48.08,0,0,1,3.67-3.34c8.6-6.42,17.17-12.88,25.91-19.1,2-1.46,2.21-2.82,1.4-5.49L505.8,335.62l-.56-.65c.64-.44,1.28-.87,1.91-1.32,5.1-3.6,10.1-7.36,15.35-10.75,2.31-1.49,2.33-2.8.48-5.51l-33.07,22.45a20.9,20.9,0,0,1,2.21-2c9.61-7,19.2-13.92,28.91-20.73,2.09-1.46,2.45-2.49.5-4.17-13.17,5.71-24.43,14.23-35.94,22.37,10.59-9.65,22.51-17.36,34.93-24.19-.68-2.82-1.82-3.68-4.3-2.35-2.93,1.58-6,2.85-9,4.34-2.74,1.37-5.42,2.85-8.13,4.29l-.39-.71L517,305.93c-1.71-2.7-3.77-3.42-6.63-1.87-4.58,2.47-9.36,4.6-13.84,7.23-5.12,3-10,6.41-15,9.64L481,320l30.53-19.34c-2.06-.24-3.69-.94-4.81-.46C501,302.65,495.53,305.34,490,308c-2.23,1.1-4.34,2.45-6.51,3.69l-.54-1,22.74-12.91c-1.73-.11-3.16-.63-4.13-.18-6.71,3.09-13.35,6.33-19.95,9.65a57.64,57.64,0,0,0-5.45,3.54l-.61-1,21.76-12.75c-2.13-.29-4.4-.5-6.07.4-16.72,9.05-31.94,20-43.7,35.24a21.58,21.58,0,0,1-2.7,2.52l4.18-6.87c-7.59,6.38-13.11,14.34-18,22.71-8.39,14.41-11.36,30.57-13.37,46.74-1.29,10.32-2.22,21,1.33,31.25a13.44,13.44,0,0,1,.12,2.48c.6,4.22,1.24,8.44,1.86,12.65l.91-.15c-.7-5.43-1.45-10.86-2.07-16.3a140.9,140.9,0,0,1,.62-38.65,105.68,105.68,0,0,1,14.7-39.22c1.37-2.19,2.88-4.28,4.33-6.41a25.25,25.25,0,0,1-1.53,3.39A112.65,112.65,0,0,0,420.44,401a142.39,142.39,0,0,0,4.28,45.27,24.4,24.4,0,0,0,1.09,2.79l.95-.27c-3.57-14.94-5.07-30-3.17-45.29-.66,19.67,1.67,38.93,9.43,57.09s18.86,34.11,35.73,45.26a115.17,115.17,0,0,1-24-28,105.84,105.84,0,0,1-13.5-34.3c3.76,14.12,10.45,27,18.56,38.88a93.76,93.76,0,0,0,31.52,29c-11.75-7.77-20.25-18.7-28.82-29.57-7.37-9.36-16.83-31.17-16.29-38.27a100.18,100.18,0,0,0,17.34,37,128.47,128.47,0,0,0,28.46,28.36c10.21,7.33,30.51,16.81,36.81,16.67-16.33-5.69-31.77-12.16-43.81-24.48-11.76-12-23.51-24.13-29.1-40.6,11.41,21.35,26.31,39.45,47.58,51.67-4.48-3.76-9.32-7.14-13.69-11.05s-8.45-8.35-12.53-12.66c-6.28-6.64-9.43-11.33-9.78-14.39l9.74,12.42.49-.37L461,474.93l.89-.58,4.8,7.17c-9.16-21.24-12.77-35.11-11.59-44.25l2.51,16.14.82-.09c-2.27-12.43-3-25.14.25-37.15s8.34-23.31,13.73-34.41c5.5-11.32,14.52-19.94,24.76-27.12l.56.54-6.66,6.14.53.64c10.07-6.47,20.83-12,28.67-21.45l-.55-.79-13.87,9.78-.46-.68c5.46-4.32,11-8.57,16.35-13,1.28-1.07,1.9-2.92,2.83-4.4l-.85-.6a28.31,28.31,0,0,0-2.68,1.55c-8.2,5.89-16.38,11.82-24.6,17.69A21.25,21.25,0,0,1,493.21,351.6ZM447.87,210.47h0c6-9.7,11.94-19.48,18.2-29,1.6-2.44,1.48-4.26.09-6.81l-14.6,20.7a1.5,1.5,0,0,1,.06-1.68c4.28-6.53,8.51-13.1,12.89-19.56,1.51-2.24,1.32-4-.87-5.91-10.67,12.24-18.56,26.27-27.58,39.52a3.93,3.93,0,0,1,.71-2.09c8-12.21,15.92-24.44,24-36.56,1.6-2.39,1.58-3.78-1.7-5.14q-9.87,13.62-19.73,27.23l-.68-.46L457.56,163c-2.26-1.76-4.27-1.93-6.09.63-7.89,11.11-15.93,22.12-23.67,33.34-3.13,4.54-5.63,9.52-8.42,14.3,8.17-18.15,19.33-34.42,31.68-49.83-2.12-1.84-3.55-1.54-5,.1-3.14,3.58-6.64,6.87-9.49,10.66-4.9,6.53-9.42,13.35-14.1,20.05,6.5-11.86,13.54-23.34,23-33.37-1.41,0-2.89,0-3.53.84-6.26,7.63-12.54,15.26-18.48,23.15-3.33,4.41-6,9.3-9,14,6.08-14.15,15.79-25.9,24.89-38.25-1.58.22-3.31.46-4.13,1.46q-9.75,11.77-19.17,23.83a59.33,59.33,0,0,0-4.21,6.94c-1.34,2.31-2.61,4.64-3.91,7,5.66-13.51,13.69-25.51,23.14-36.69a13.48,13.48,0,0,0-5.05,3.5A168.74,168.74,0,0,0,415,179.71a283.61,283.61,0,0,0-23.81,48.42c-8.83,23.09-14.81,46.88-19.64,71-.9,4.52-1.39,9.12-2.06,13.69,5.71-28.49,12.72-56.54,23.94-83.4a17.39,17.39,0,0,1-.88,3.55c-3.47,11-7.07,22-10.4,33.08-6.31,21-10,42.59-13.28,64.21a188.61,188.61,0,0,0-1.55,46.52c1.73,17.95,3.28,36,6.14,53.75,2.43,15.09,6.5,29.92,10.07,44.82,1.15,4.81,3,9.44,4.56,14.15l1.13-.21c-21.44-67.18-25.77-135-9-203.73a4.11,4.11,0,0,1,.23,2.6c-2.34,13.12-5.38,26.16-6.85,39.38-1.45,13-1.44,26.17-1.78,39.28-.17,6.45.37,12.91.52,19.37s-.16,13,.4,19.39c2,23.12,7.14,45.67,13.19,68,1.44,5.35,3.18,10.63,4.78,15.94l1.42,0c.24-1.54.91-3.16.65-4.6-.72-3.89-1.83-7.7-2.8-11.54-.4-1.61-.82-3.22-1.23-4.84l.95-.24,10.13,33.75-.73.25-4.28-12.11a3.67,3.67,0,0,0-.45,3.1C398,503.68,402,514,405.45,524.43c5.19,15.73,12.92,30.26,20.5,44.88.57,1.11,1.23,2.17,1.9,3.23s1.25,1.85,1.88,2.78c-11.52-22.12-21.6-44.72-28.78-68.56,3.55,7.76,6.68,15.69,10.18,23.46s7.29,15.23,10.95,22.83,7,15.61,11.17,23,9.23,14,13.9,21a5,5,0,0,0-.89-2.69c-6.66-11.78-14-23.22-19.83-35.41-9.8-20.63-20.06-41.19-23.58-64.19-.84-5.48-2.24-10.86-3.39-16.29l1-.27c4.34,24,12.55,46.71,22.36,69,12.88,29.25,30.56,55.78,38,62.27-12.13-18.26-23.7-35.79-32.15-55.39s-15.64-39.38-19.3-60.4c1.88,6.23,3.31,12.59,5.12,18.84s3.76,12.58,6.13,18.69,5.39,12.19,8.16,18.26,5.35,12,8.28,17.85,6,11.31,9.05,17c-3-7.69-6.77-15-10.21-22.44a279.72,279.72,0,0,1-17.69-52c-2.66-11.13-5.17-22.3-7.88-33.41-3.88-15.93-6.85-32-7.37-48.42-.41-12.8-.13-25.65.36-38.46.62-16.25,1.69-32.43,4.85-48.49,4.95-25.18,11-50,20-74.05,10.06-26.68,22.21-52.38,38.51-75.92a8.84,8.84,0,0,0,1.33-8.62,17.57,17.57,0,0,0-1.43,1.65c-5.35,8.08-10.64,16.2-16,24.24A11.35,11.35,0,0,1,447.87,210.47Zm19-14.62-.83-.41a22.46,22.46,0,0,0-1.79,2.47c-7.39,13.38-15.18,26.58-22,40.25a292,292,0,0,0-15,35,418.73,418.73,0,0,0-17.57,67c-1.63,9.65-3.29,19.35-3.88,29.08q-1.51,25-1.59,50a222,222,0,0,0,2.11,30.8c1.33,9.67,3.85,19.18,6.07,28.71,4.81,20.58,8.95,41.35,16.49,61.17,3.91,10.28,8.56,20.28,12.88,30.41l1.11-.44c-.77-2.1-1.46-4.24-2.34-6.31-3.32-7.86-7-15.57-10-23.58-3.22-8.87-7.26-17.39-8.45-27.09A253.55,253.55,0,0,0,415,478.41c-3.46-13-6.13-26-6.53-39.34-.58-19.37-1.14-38.75-1.1-58.13a151.78,151.78,0,0,1,2.41-26.4c2.61-14.54,5.48-29.09,9.38-43.32,4-14.54,9.34-28.7,14.05-43,2.11-6.42,3.51-13.16,6.28-19.27,4.2-9.28,9.25-18.17,14.06-27.16,2.84-5.32,6-10.47,8.83-15.81C464.08,202.7,465.37,199.23,466.85,195.85ZM410.57,393.29v31.3C412.91,422.23,413.37,396.05,410.57,393.29ZM482.38,300c-6.55,1.69-25.45,16.61-27.45,21.47Zm-66.83,94.85c-2.16,4.5-2.23,26.6,0,29Zm84.56,128.34.41-1-13.6-7.36-.47.88Z" transform="translate(-16.98 -62.83)"/><path d="M487,769.29c-11.43-.61-23-.5-34.28-2-18.21-2.38-35.07-9.31-50.82-18.55s-28.74-21.39-40-35.79c-8.43-10.78-13.62-22.84-17.42-35.7-.51-1.73-.09-3.73-.1-5.6a30.07,30.07,0,0,1,4.75,2.47c11,8.45,23.23,14.76,35.82,20.34a336.28,336.28,0,0,0,82.44,24.71c28.47,4.62,57,7.38,85.95,3.34,16.22-2.26,32-5.61,47-12.21a8.19,8.19,0,0,1,2.06-.69c1.86-.25,3.08.42,2.19,2.42a14.13,14.13,0,0,1-3.13,4.93c-5.16,4.52-10.33,9.09-15.9,13.07A245.77,245.77,0,0,1,543.8,754C525.74,762.13,507.16,768.54,487,769.29Zm-63.6-49.7a28.55,28.55,0,0,0-3.3-1.59c-8.54-3-17.1-5.89-25.66-8.82l-2.46-.86a1.77,1.77,0,0,0,1.1,1.21q14.12,5,28.26,9.94a7.13,7.13,0,0,0,2.12,0,14.32,14.32,0,0,0,2.71,1.36c7.35,1.88,14.66,4,22.1,5.42,10.56,2,21.22,3.54,31.83,5.27l.17-.88c-.37-.11-.73-.27-1.1-.34-12.61-2.26-25.23-4.42-37.82-6.78C435.28,722.43,429.33,720.92,423.35,719.59Zm87.5,18.85a434.44,434.44,0,0,1-92-13.47C448.73,734.74,479.5,738.63,510.85,738.44Zm-85.22.33c25.52,6.56,51.23,11.43,77.75,9.87-13-1.2-26.08-1.94-39-3.57S438.53,740.91,425.63,738.77Zm-1.5-25.31c16.37,6.38,76.77,16.84,86.51,15.09A623,623,0,0,1,424.13,713.46Zm62.35,29.16c-27.08-3-54-7-80.06-15.13C432.4,736.29,459,741.83,486.48,742.62ZM503,754l-60.66-4.61C461.13,753.06,482,754.41,503,754Zm-2.72-11.81v.68h33.41v-.68Zm-50,17.11-.07.69,30.46,3.24.11-1.06Zm-1.75-5.24-.12.79,27.91,4.21.14-1Zm50.19-20.92,0,.44h12.56v-.44Zm19.95,26.26a3.43,3.43,0,0,0-.17-.73c-3.82,0-7.65,0-11.48,0l0,.75ZM379.52,721.91l-.36.83,13.11,5.76.32-.75Zm16,13.4-.37.69,13.55,5.08.28-.75Zm179.36-9.88.24.69,11.82-4-.26-.77ZM372.48,712.37l.49-.81-9-5.09-.41.74Zm156.84,40.78c0,.34.09.67.13,1l8.94-1.31-.1-.73ZM394,716.47l-.24.63,10.16,4,.27-.72Z" transform="translate(-16.98 -62.83)"/><path d="M544.51,708.35c15.63.87,34.43-2.31,52.79-8.57,6-2,10.77-5.81,15.35-10,1.66-1.51,3.38-4.31,6-2,2.33,2,.61,4.53-.73,6.47-4.46,6.49-11,10.43-17.86,13.82-13.42,6.66-27.92,9.46-42.63,11.55-35.84,5.06-71.13,1.38-106.26-6a319.73,319.73,0,0,1-56.73-17.28c-15.41-6.39-30.53-13.58-44-23.57-10.69-7.91-20.61-16.78-26.53-29.06-3.61-7.49-2.92-15,1.49-22.07a14.73,14.73,0,0,1,11.15-6.74,93.73,93.73,0,0,1,38.69,3.21c15.63,4.59,30.51,11,45.29,17.87,19.49,9,39.25,17.43,59.07,25.69,19.5,8.12,39.91,13.35,60.62,17.34a137,137,0,0,0,40.52,1.6,63.5,63.5,0,0,0,36.43-15.83c5.58-5,11.08-10.12,16.69-15.1a9.52,9.52,0,0,1,2.82-1.17,10.28,10.28,0,0,1-.24,2.86c-3.06,7.8-8.83,13.59-14.55,19.38-13,13.15-28.14,22.88-46.32,27.12-14.57,3.4-29.37,5.73-44.37,4a335.08,335.08,0,0,1-53.32-10.64C451.77,683.78,426.5,674,401,664.86A282.72,282.72,0,0,0,356.73,653a23.84,23.84,0,0,0-5.6-.26,8.86,8.86,0,0,0-2.74,1.12c.44.86.65,2.07,1.35,2.53,4.83,3.21,9.44,7,14.71,9.25,35.07,14.71,71.33,25.68,108.42,34.1C489.93,703.57,525.32,708.15,544.51,708.35Zm-32.67-13.14a23.42,23.42,0,0,0,4.53.49c1-.08,2-.9,2.94-1.39-3.11-1.47-5.87-2.61-7.47.92.13-.78.25-1.57.38-2.34-5.51-1.57-5.89-1.44-6.33,2.33ZM386.62,649.9l2.7-.32c-.25-1.19-.49-2.39-.74-3.58l2.53-3.72c-.11,1.58.12,3.72-.49,5.58-.75,2.3-.24,3.5,2,4.16L390,653.09c.55.93.9,2.15,1.71,2.69a13.79,13.79,0,0,0,3.66,1.27c1.2-2.21,1.38-3.68-1.3-4.16a5.5,5.5,0,0,1-1.58-.94c1.28.14,2.72.68,3.76.25.56-.23.43-2.14.6-3.29l.77-.2.23,5.09c-.37,1.21-1.15,2.71-.87,3a40.57,40.57,0,0,0,5,3.13c.83-3.22,1.48-5.79,2.24-8.77.32.74.61,1.12.53,1.28-2,3.66.8,4.18,3.22,4.93,1.43.44,2.87.84,4.76,1.38-1.14.7-1.72.84-1.92,1.2-1.88,3.33,1.71,3.15,2.95,4.51l-3.26-.52c-.19,2.18,1,3,5.27,3l-2.13-2.59,7.44,2.33c.49-1.44.93-2.73,1.38-4l.5.13-.84,4.46,12.61,4.73,1.21-1.88c.55,1.13,1.09,2.22,1.62,3.32l-1.66.91c.33.46.56,1.1,1,1.32a12.07,12.07,0,0,0,2.9,1,11.71,11.71,0,0,0,2.22,0l-1.21-2.12,3-1.1c-.21,1.18-.47,2.66-.77,4.32l5.18,1.86c1-2.63,1.85-5,2.94-8,.53,2.64-2.56,5.16.89,6.72l-2.31.92a44.91,44.91,0,0,0,3.93,2.36c.41.2,1.14-.25,1.72-.41-.25-.55-.35-1.31-.78-1.62A16.25,16.25,0,0,0,452,678.2l3.92.7,2.14-5.12c.44,2.51-2.5,4.54.21,6.46-.52.7-1,1.39-1.57,2.08l6.58,1.93.44-1.24-2-1.25-2.31-1.41c2.55.78,5.18,1.39,7.65,2.39,2.88,1.17,3.95,0,4.4-2.67a5.9,5.9,0,0,1,.93-1.67,4,4,0,0,1-.31,3c-.91,1.68-.54,2.71,1.27,3.26l-3,.52.13,1.29c2.25-.33,4.27,3.51,6.72-.11.12,2.09,4.86,4.75,6.56,3.64.31-.2.7-.69.65-1-.42-2.54,2-3.55,2.85-5.37-.42,1.11-.83,2.23-1.3,3.49l2.25,1c-1.67-.06-3.47-.27-3.08,2.34,5.63,2.14,5.68,2.14,6.34-1.06L488,688.12c2.19.08,5,1.42,5.25-2.6L489,683.91l6.06.54a4,4,0,0,1-.64,1.5c-1.46,1.87-1,3.11,1.08,3.94-2.33-.84-3.49-.11-3.45,2.56a20.86,20.86,0,0,0,3.62.91,8.87,8.87,0,0,0,2.6-.59l-.84-3c2,1.1,2.24-.59,2.75-1.76.72-1.64,1.35-3.31,2-5l.67.26c-1.34,3.47-2.67,6.94-4.13,10.73,2.36,0,4.55,2.47,6.22-.53.3-.55-.69-1.81-.92-2.37,3.62,1,2.84-3.85,5.55-5.84-.93,2.39-1.6,4.13-2.34,6,3.86.42,7.27,1,10.68,1,1,0,2.11-1.49,2.92-2.49.28-.35-.19-1.3-.31-1.91l2.84-1.72c-.73,1.93.33,2.61,1.52,2.4-2.48-.78-3.26,1.19-3.67,4,1.82.09,4.08.89,5.18.1,1.61-1.17,2.38-3.48,3.46-5.22,2.08,2.93,5.17,1.56,7.73,1.89l-1.9,4c4.91,1,4.88,1,6.87-2.79.31-.6,1-1,1.56-1.5.18.35.34,1,.54,1,4.25.25,8.51.53,12.76.5.65,0,1.29-1.47,1.94-2.27l-.39-1c-4.34,0-8.68-.08-13,.08-.65,0-1.26,1.16-1.89,1.77.88-3.66-2.69-1.31-3.3-2.28h22.6c-3.51.91-3.51.91-3.61,3.77,2.92-.15,5.82-.25,8.71-.47,2.06-.16,4.67.46,4.79-3,0-.28.5-.73.83-.79,2.39-.47,4.8-.86,7.2-1.28a10.13,10.13,0,0,1-4.37,1.64c-2.81.5-2.82.47-2.87,3,4.72-1.82,10.1-.13,14.1-3.3.75.19,1.52.66,2.12.5,11.94-3.23,22.37-9,30.42-18.56a17,17,0,0,0,1.75-3.52l9.44-9.27c-2.78,2.36-5.52,4.75-8.17,7.23a8.57,8.57,0,0,0-1.24,2.13c-3,1.76-6,3.36-8.86,5.31-11.35,7.81-23.73,12.6-37.61,12.87-15.43.31-30.85.18-45.9-4.06-13.63-3.83-27.64-6.61-40.86-11.53A808.26,808.26,0,0,1,410.59,634c-10.75-5.35-22.43-8.93-33.9-12.65-10.69-3.47-21.63-6-33.06-3.24-3.91.93-7.31,3-8,6,11.59-4.86,23.89-5.52,34.92-1.86-.17.09-.34.26-.5.25-.72-.08-1.43-.23-2.15-.34-7.74-1.16-15.47-2.24-23.31-.55-2.27.49-3.23,1.44-2.87,3.86,2.37-.43,4.59-1,6.83-1.18a61.42,61.42,0,0,1,7.18-.14c2.12,0,4.24.26,6.37.4a73.34,73.34,0,0,1-11.55.43c-2.59-.09-3.64.91-3.21,3.76,2.36-.66,5.19,1,6.7-1.71,3,3.75,8-.07,10.47,2.27L362.09,633l5.22,1.61-.11.31-4.7-.67c-.24,1.37-.43,2.42-.65,3.68,2.56.55,4.77,1.09,7,1.49,1.16.2,2.45-.08,1.38,1.86-.91,1.65-.18,3,1.5,3.76l-2.24,2.26,4.74,3c2.48-4.21-1.26-4-2.61-5.3l3.5.49c.39-1.94.76-3.74,1.08-5.29l2.13,2.53c-.67.55-1.7,1-1.89,1.69-.15.51.64,1.63,1.28,1.95a39,39,0,0,0,5.14,1.78c-.52-2-.85-3.32-1.17-4.6l1.94-1.33c-.28,2.6,2,2.86,3.81,3.59-1.37-.1-3-1.84-4,.44s1.14,2.64,2.56,3.32a5.13,5.13,0,0,1,.76.52l-3.41-.6c-.17,1.21-.31,2.2-.49,3.4l5.33,1.83C389.77,652.1,388.67,650.82,386.62,649.9Zm25.69,39.42c28.39,8.55,57.16,15.26,86.61,18.83a6.92,6.92,0,0,0-2.88-1c-16.06-2.84-32.32-4.45-47.91-9.91-21.21-7.45-42.74-14-64-21.26-8.46-2.89-16.74-6.41-24.88-10.12-10.58-4.82-17.73-13.65-24.34-22.74-4-5.49-6.11-12-2.22-18.42,1.88-3.1,5.22-5.31,7.62-7.65-6.48-1-14.11,4.09-15.2,11.73-.67,4.63.1,9.68,1.26,14.28.8,3.17,3,6.16,5.2,8.79,7.63,9.34,16.21,17.54,27.18,23.1s21.59,12.67,33,17.55c13.36,5.71,27.41,9.84,41.23,14.45,3.92,1.31,8.08,1.9,12.14,2.81l.2-.77c-17.22-4.46-34.31-9.3-50.56-16.67,16.43,5.75,33,10.85,50.3,13.38-16.64-5-33.27-10.06-49.25-17a5.86,5.86,0,0,1,2.69.4c14.62,5.63,29.81,9.25,45,13,19.45,4.77,39,8.74,59,10.33,18.66,1.49,37.29,1.75,55.89-.33,6.93-.77,13.76-2.43,20.64-3.68C521.6,717.87,466.18,710.52,412.31,689.32Zm124.64,27-43.9-2C508.22,718.32,522.7,717.6,537,716.28Zm-41.5,2.57c.07-.52.15-1.05.23-1.58l-37.79-5.57-.17,1.11Zm-142-86h8.41c.11-1,.21-2.1.31-3.14C354.09,628.52,353.78,628.62,353.4,632.87Zm7.94,1.49c-6.47-1.63-8.42-1-7.95,2.68l7.33.51C361,636.34,361.13,635.45,361.34,634.36Zm-.77,4.49a58.82,58.82,0,0,0-6-.58c-.65,0-1.3.88-1.95,1.36.56.68,1,1.82,1.7,2A42.68,42.68,0,0,0,360,642ZM476,712.47l.29-1.1-23.45-4.48-.21,1.1ZM361.26,642.22l7.24,1.63.46-3.66-6.89-1.41C361.77,640.07,361.56,641,361.26,642.22Zm-.15,4.19c1.43.36,2.53.65,3.63.91s2.14.44,3.21.66c.7-3.84.43-4-6.36-4.51Zm167.47,46.36c5.09,1.7,6.25,1.26,6.55-2.46C529.36,688.9,529.23,689,528.58,692.77ZM409,662c1.45-3.36-.34-5.07-5-4.79C403.3,660.64,403.72,661,409,662Zm190.29,24.46-.48-.87c-10.73,2.76-10.73,2.76-10.89,5.83Zm-239.22-43c-6.92-1.33-7.45-1.13-6.75,2.3l6.35.6C359.81,645.32,359.93,644.45,360.07,643.41ZM346.56,633c5.81.72,6.56.25,5.62-3.53C346.86,629.36,346.54,629.56,346.56,633ZM550,691.63c-6.3-1-6.3-1-6.74,2.36C547.75,695.34,549.07,694.91,550,691.63ZM381.59,652c.75-3.38-.07-4.11-5-4.72C375.59,650.75,375.75,650.9,381.59,652Zm175.83,39.74c-6-.81-6.2-.76-6.68,2.86C553,693.73,556.43,696.11,557.42,691.75ZM345.86,637.47c6.21-.15,6.27-.19,5.63-3.69C349.61,635,345.8,632.52,345.86,637.47Zm.63,4.6,4.66-.53v-3C345.74,638.57,345.51,638.74,346.49,642.07Zm-.32-16.26c-5.63,1-5.63,1-5.41,4.11C345.38,629.72,346.08,629.22,346.17,625.81Zm-.95,4.51a30.62,30.62,0,0,0-4.83,1.94c-.4.24-.06,1.73-.06,2.91C342.86,634.28,345.81,634.66,345.22,630.32Zm15.6,18c1.61,3.78,4.76,2.67,6.9,3.93C367.93,649.33,367.76,649.23,360.82,648.36Zm213.91,63.95c-.1-.28-.2-.56-.31-.85l-16.52,2.82.13.77Zm-55-16.67c5.55,1.3,5.79,1.24,6.4-1.73C524,694.79,521.1,691.08,519.71,695.64Zm13.85-.68c-5.86-1.27-6.21-1.43-6.33,1.69C529.27,696.16,531.88,698.57,533.56,695Zm-189-59.73c-4.77.93-4.91,1.1-3.66,4.2C344.69,638.26,344.69,638.26,344.6,635.23Zm241.79,53.89c-2.07.82-5.14-.55-6.12,2.65C582.69,691.73,585.54,692.6,586.39,689.12ZM333.65,628.46l.72.79c5.92-3,5.92-3,5.9-6.48Zm25.9,21.7c-.3-2.21-2.07-3.13-5-2.76-.49.06-.92.54-1.37.83.4.46.75,1.25,1.22,1.34C356.06,649.9,357.78,650,359.55,650.16ZM564.3,691.73c-5.17-.79-5.91-.45-5.53,2.61C560.65,693.6,563.76,695.61,564.3,691.73ZM541.48,697l.36.85a33.23,33.23,0,0,0,4.79-.09c.48-.07.8-1.17,1.2-1.8a23.48,23.48,0,0,0-4.45-.57C542.72,695.41,542.11,696.42,541.48,697ZM333.56,633.87c5.74-2.61,5.75-2.62,5-5.64C336.28,629.48,334,630.59,333.56,633.87Zm245,56.64c-5.12.13-5.12.13-5.66,2.45C577.26,693.36,578.34,692.9,578.54,690.51Zm-30.32,27.74-.05-.72-15.59,1.11a14.58,14.58,0,0,0,5.25.51C541.3,718.91,544.76,718.56,548.22,718.25ZM369.77,650.14c-1,3.75,2.11,2.87,3.52,3.61.3.15,1.37-.38,1.37-.62,0-.58-.23-1.51-.64-1.7A32.51,32.51,0,0,0,369.77,650.14Zm-23.34-6.55c-.53,2.94,1.27,2.35,3,2.24,2.12-.13,2.43-1.05,1.61-2.88-1.18.09-2.31.15-3.43.27A5.41,5.41,0,0,0,346.43,643.59Zm225.18,48c-4.78-.83-5.61-.52-5.89,2.26C567.83,693.56,570.4,694.75,571.61,691.64Zm-190.82-36,.78-.62c-.49-.64-.86-1.63-1.51-1.87a18.21,18.21,0,0,0-3.79-.65c.22.7.24,1.79.68,2A21.27,21.27,0,0,0,380.79,655.68Zm27.82,9.41c.5-2.24.51-2.29-3.15-3.37-.66-.19-1.5.24-2.25.38.44.56.78,1.37,1.36,1.64A36.11,36.11,0,0,0,408.61,665.09Zm-13.56-4.52c.07-2.61-1-3.3-5.47-3.65C390.4,659.93,393.09,659.37,395.05,660.57Zm1.27-.9-.12.9c1.52.6,3,1.26,4.58,1.74.28.09.79-.61,1.2-.94-1.43-.81-2.83-1.69-4.32-2.39C397.38,658.85,396.77,659.43,396.32,659.67Zm138,37.22c5.79,1.14,6,1.06,5.73-1.78C538.23,695.88,535.58,693.27,534.29,696.89ZM339.23,634.15l-1.14-.89c-1.29,1.28-4.59,1.22-2.59,5.24Zm7.91,13.74c.58,2.16.58,2.16,4.54,1.31C351,646.81,351,646.79,347.14,647.89Zm202.08,49.53c4.12,1,5.51.68,6.07-1.63C553.25,696.19,550.74,694.32,549.22,697.42ZM422.55,668.14l-.78,1.4,5.47,2.53.61-1.26ZM382.7,654.32c.9,2.82,3.15,2.55,4.68,3.23.22.1.74-.47,1.12-.72-1-.67-2-1.41-3.13-2A12.91,12.91,0,0,0,382.7,654.32ZM464.33,683l-.25,1.49c1.33.46,2.65,1,4,1.34a1.76,1.76,0,0,0,1.32-.47c.17-.15,0-1-.1-1.06C467.67,683.81,466,683.42,464.33,683Zm92.42,14.82c2.3-.41,4.61.87,6-1.8C558.66,695.29,558.14,695.42,556.75,697.82Zm13.15-1.4-.21-1c-4.18-.57-4.73-.39-5.2,2.1ZM434.34,674.71c-.27-2.71-3.13-3.86-5.9-2.36Zm-89.71-30.45c-3.75,1-3.86,1.23-2.17,4C343.52,647.06,346.31,647,344.63,644.26Zm-3.12-.44c1.75-.92,4-1.23,2.73-3.94C340.46,640.76,340.38,640.86,341.51,643.82Z" transform="translate(-16.98 -62.83)"/><path d="M382.19,542.62a34.23,34.23,0,0,1-2.8-3.48c-10.8-18.89-19.89-38.53-24.72-59.86-4.5-19.9-7.13-40-5.48-60.5.4-4.88.48-9.8,1.09-14.65.3-2.38,1.57-4.63,2.2-7,.53-2,.75-4,1.15-6.05a30,30,0,0,1,1.34-5.72c.39-.93,2-2.15,2.69-1.95a4,4,0,0,1,2.39,2.71c.35,3.83.32,7.7.33,11.56.08,19,.68,37.91,4.3,56.65,2.43,12.58,3.9,25.35,6.56,37.87,2.23,10.48,5.71,20.68,8.32,31.08,1.39,5.52,2.12,11.21,3.11,16.83A10.92,10.92,0,0,1,382.19,542.62ZM369.92,501.2c-5.75-37.29-13.86-74.13-12.79-112.11l-1.07,0q-.88,10.43-1.79,20.84l-.53,0v-5.56c-7.82,22.54,3.88,98,17.35,114q-4.21-12.56-8.44-25.1l.67-.21q6.65,17.14,13.3,34.28l.91-.32A268.45,268.45,0,0,1,363,474.89l.78-.21Q366.87,487.94,369.92,501.2Z" transform="translate(-16.98 -62.83)"/><path d="M508.94,496.34c-3.88-1.19-7.71-2.17-11.41-3.52-12.13-4.42-19.81-13.22-24.87-24.88-4.07-9.37-4.53-19.2-4.67-29.11-.06-4.58.27-9.18.58-13.75.07-1,.85-1.94,1.3-2.91,1,.58,2.68,1,2.92,1.77a66.88,66.88,0,0,1,2.85,12c1.19,11.15,4.15,21.86,9.75,31.43,5.44,9.3,13.67,16.47,22,23.25a19.7,19.7,0,0,1,2.86,2.41,2.77,2.77,0,0,1,.42,2.23C510.57,495.71,509.61,496,508.94,496.34ZM482.62,476.8l.38-.39,14.79,12.86.4-.48-12.6-12.65.78-.75,9.71,9.22,1-.68c-15.19-11.71-20-28.56-23.57-46.36L473,439l-.46,0-1.44-11.46c-1.59,10.61.42,20.79,2.35,31l-2.77-9.91c-1.1,13.68,11.41,35.5,22.1,39Z" transform="translate(-16.98 -62.83)"/><path d="M624.39,690.24c-1.14-.63-3.06-1.08-3.26-1.92-.31-1.39,0-3.74.92-4.45a122.38,122.38,0,0,1,14.27-9.45c3.36-1.83,9.09,2,10,6.58,1.12,5.59.51,10.92-3.48,15.55-8.14,9.44-18.73,14.72-30.42,18.19a3.55,3.55,0,0,1-1.51.34c-1.15-.23-2.26-.63-3.39-1,.48-1.14.64-2.68,1.48-3.37,3.37-2.78,7.14-5.09,10.4-8a71.14,71.14,0,0,0,8-8.72,4.62,4.62,0,0,0,.35-3.75c-.19-.58-1.92-.66-3-1Zm7.61-3.58a10.56,10.56,0,0,0-9.67.3c.9.39,1.11.57,1.25.53,2.43-.64,4.86-.85,6.43,1.51s.34,4.53-1,6.59a11.81,11.81,0,0,0-.67,1.33l1,.34L619.81,706l.75.84,15.49-13.77.39.35L626.13,705a36.59,36.59,0,0,0,6.28-4.35c1.88-1.65,3.55-3.54,5.31-5.33l.58.55-6.77,7.77a36.07,36.07,0,0,0,7.52-5.7c3.36-3.41,5.65-7.44,5.9-12.42a8.74,8.74,0,0,0-4.42-8,5.16,5.16,0,0,0-6.57,1.13l2.74.54c-5-1-7.39,3.15-10.62,4.61Z" transform="translate(-16.98 -62.83)"/><path d="M382.21,278.82c4.65-23.52,11.4-46.3,23.81-67.09C395.14,233.06,388.15,255.75,382.21,278.82Z" transform="translate(-16.98 -62.83)"/><path d="M383.43,404.46l5.91,42-.75.11q-2.89-20.94-5.8-41.88Z" transform="translate(-16.98 -62.83)"/><path d="M376.18,346.36v34.82h-.49V346.4Z" transform="translate(-16.98 -62.83)"/><path d="M399.39,408V378h.4V408Z" transform="translate(-16.98 -62.83)"/><path d="M416.13,529.39l-7-20.73.84-.29,6.86,20.79Z" transform="translate(-16.98 -62.83)"/><path d="M443.94,206.56q-4,8.17-8.05,16.35l-1-.54q4.56-7.86,9.11-15.74Z" transform="translate(-16.98 -62.83)"/><path d="M435.1,237.79l6-14.17.74.21a3.11,3.11,0,0,1,0,1.26q-2.71,5.78-5.55,11.49c-.24.47-.81.77-1.22,1.15Z" transform="translate(-16.98 -62.83)"/><path d="M380.4,309.62l3.48-18.27.63.11c-.74,4-1.41,8-2.26,11.89-.46,2.11-1.25,4.15-1.89,6.22Z" transform="translate(-16.98 -62.83)"/><path d="M380.36,309.57c-.36,4-.69,8-1.11,11.95a9.24,9.24,0,0,1-1.44,4.37q1.31-8.13,2.6-16.26Z" transform="translate(-16.98 -62.83)"/><path d="M376.79,394.73l1.51,15.66-.73.06L376,394.66Z" transform="translate(-16.98 -62.83)"/><path d="M444,206.63l5.81-10.78,1.18.74-7.06,10Z" transform="translate(-16.98 -62.83)"/><path d="M402.63,456.88q1.23,6.66,2.45,13.32l-.53.1q-1.29-6.54-2.6-13.09Z" transform="translate(-16.98 -62.83)"/><path d="M435,237.73c-.41,1.33-.72,2.7-1.23,4a35.79,35.79,0,0,1-4.13,8l5.43-11.91Z" transform="translate(-16.98 -62.83)"/><path d="M418.31,520.26,415,507.8l.77-.2,3.06,12.47Z" transform="translate(-16.98 -62.83)"/><path d="M407.47,317.81q1.36-5.34,2.74-10.67l.56.14q-1.31,5.36-2.6,10.7Z" transform="translate(-16.98 -62.83)"/><path d="M447.87,210.47,445,219l-1.27-.53q2.08-4,4.16-8Z" transform="translate(-16.98 -62.83)"/><path d="M416.32,287.7q-1.6,5.18-3.23,10.36l-.52-.17,3.18-10.37Z" transform="translate(-16.98 -62.83)"/><path d="M399.6,422.44l-.48-11,.67,0v11Z" transform="translate(-16.98 -62.83)"/><path d="M399,475l-1.89-10,.68-.14c.62,3.37,1.24,6.73,1.87,10.1Z" transform="translate(-16.98 -62.83)"/><path d="M452.91,407.29a109.86,109.86,0,0,0,6.72,63.9C448.75,450.84,448.2,429.36,452.91,407.29Z" transform="translate(-16.98 -62.83)"/><path d="M471.94,376.29c-9.77,18.12-17.41,36.82-17.81,57.72C453.28,412.7,460.5,393.82,471.94,376.29Z" transform="translate(-16.98 -62.83)"/><path d="M430.11,436.63c-2.69-14.74-4.14-29.51-.93-44.62-.3,7.72-.92,15.18-.77,22.63S429.51,429.3,430.11,436.63Z" transform="translate(-16.98 -62.83)"/><path d="M493.21,351.6a11,11,0,0,1-1.34,2.49c-6.09,6.33-12.24,12.61-18.4,18.94,5.5-8.12,11.74-15.55,19.81-21.34Z" transform="translate(-16.98 -62.83)"/><path d="M478.84,314.49l-15.59,13.35-.52-.6,15.51-13.44Z" transform="translate(-16.98 -62.83)"/><path d="M452.93,330.44l9.43-9.19.19.16-9.08,9.49Z" transform="translate(-16.98 -62.83)"/><path d="M487.52,324.06l7.86-5.41.45.66-7.92,5.32Z" transform="translate(-16.98 -62.83)"/><path d="M609.25,676.15l-11.07,5.51-.33-.67,11-5.57Z" transform="translate(-16.98 -62.83)"/><path d="M346.52,664.64l-8.4-7.72-.06.05,8.09,8Z" transform="translate(-16.98 -62.83)"/><path d="M346.09,659.78l-7-6.57,0,.06,6.87,6.78Z" transform="translate(-16.98 -62.83)"/><path d="M358.73,475.84l-3-15.77.61-.12q1.53,7.88,3.07,15.76Z" transform="translate(-16.98 -62.83)"/><path d="M354.39,432.28V419.36h.33v13Z" transform="translate(-16.98 -62.83)"/><path d="M120.45,216.28c-2.1,2.93-4.13,5.91-6.32,8.76-3.08,4-6.28,7.9-9.54,12,.7.23,1,.41,1.08.35,6.33-7.55,13-14.83,18.87-22.74,6.92-9.37,13.16-19.24,19.58-29a32.46,32.46,0,0,0,2.42-5.66c2.36-5.75,5-11.41,7-17.29,3.21-9.33,6.29-18.74,8.8-28.27.82-3.11.1-6.81-.59-10.1-2.62-12.63.48-24,8.14-33.88,6.41-8.3,13.67-16,20.65-23.81a36,36,0,0,1,4.73-3.81l.9.54a18.47,18.47,0,0,1-.19,2.89q-3.48,15.15-7,30.29c-2.2,9.44-4.33,18.91-12.18,25.68a10.76,10.76,0,0,0-1.12,1.91c13.57-7.71,25.44-16.89,40.4-21.26,0,1.55.26,2.55-.05,3.32-2.61,6.54-5.06,13.15-8.11,19.48-2,4.22-5.22,7.88-7.41,12a21.72,21.72,0,0,1-11.72,10.19c-5.35,2.16-10.71,4.32-16,6.59-8,3.41-13.44,9.39-17.31,17-.89,1.77-2,3.44-3.3,5.73a16.4,16.4,0,0,0,2.65-.81c13.05-7.17,27.18-10.54,41.87-12,1.63-.16,3.24-.67,4.88-.8.83-.06,2.26.17,2.45.64a3.77,3.77,0,0,1-.26,3c-2.82,4.53-5.78,9-8.75,13.44-8.69,13-19.77,22.94-35.57,26.08-6.33,1.26-12.88,1.39-19.34,2-1.41.13-2.83.07-4.25.15-3.25.16-5.32,1.38-7,4.64-5.16,10-13.47,17.58-21.42,25.3a206.52,206.52,0,0,0-32.76,40.67C70,287,65.39,294.57,60.81,302.14A60,60,0,0,0,53,323.23a2.92,2.92,0,0,0,.78,2.35,16.19,16.19,0,0,0,1.83-3.68c2.7-13,9.12-24.1,16.8-34.73,4.28-5.91,7.42-12.63,11.68-18.55,5.37-7.44,10.66-15.19,17.3-21.39,5.77-5.38,10.58-11.56,16.27-16.91S130.64,222.73,138,222c12.77-1.34,25.66-1.58,38.5-2.27a3.44,3.44,0,0,1,1.4.11c1.17.41,2.31.93,3.46,1.4a12.12,12.12,0,0,1-1.49,3c-6.89,7.46-13.57,15.12-20.84,22.19-13.47,13.09-29.48,17.7-47.49,11.51-8.29-2.85-14-.12-19,5.7s-9.5,11.86-14.22,17.81l1,1.15a22.15,22.15,0,0,0,3.3-1.87C97,268.93,112.62,267,129.45,275c4,1.92,8.15,3.73,12.19,5.66a47.66,47.66,0,0,1,4.17,2.64c-1.81,1.35-3.07,2.38-4.41,3.28q-7,4.72-14.12,9.38c-8.07,5.27-16.55,10.06-26.43,9.74-5.64-.19-11.21-2.42-16.8-3.79-2.17-.54-4.25-1.55-6.44-1.8-5.36-.59-10,.84-12,6.38-2.56,6.94-4.88,14-7.11,21-.69,2.18-1.15,4.29-4,3.77-2.7-.48-4.4-2.44-3.92-5,1-5.41,1.86-11,4-16,2.75-6.48,6.89-12.34,10-18.67a149.79,149.79,0,0,0,7-16.54,10.16,10.16,0,0,0-1.68-9.42c-1.84-2.59-3.5-5.32-5.36-7.91-6.71-9.35-6.6-19.8-5.29-30.57,1.46-11.92,6.17-22.68,11.27-33.33.36-.75,1.25-1.73,1.89-1.73s1.42,1,1.88,1.75c2.19,3.48,4.18,7.09,6.46,10.51,9.87,14.77,11.87,30.05,3.79,46.37-3.06,6.18-5.25,12.78-8.17,20,1.12-.6,1.59-.69,1.77-1,6.12-9.79,12.27-19.56,18.28-29.43,3.42-5.63,3.21-11.36,0-17.11a49.67,49.67,0,0,1-6.61-27.5c.85-15.26,6.09-29.18,13.92-42.2,1.61-2.67,3-2.15,4.31.22,2.93,5.2,5.88,10.38,9.22,16.26,2-18.8,11.28-33.93,21.36-49.66a26.23,26.23,0,0,1,2.35,4.09c4.58,13.63,7.29,27.55,6.71,42-.33,8-2.59,15.09-8.31,20.81-7.28,7.26-10.69,16.82-15.51,25.56-.71,1.28-2.09,2.2-3.15,3.28q2.41-9.66,4.84-19.32c-.85-.32-.75-.48-.69-.46.5.1,1,.24,1.5.36.89-5.45.37-7.24-2.59-9.83-.34,5.23-.21,10.84-1.18,16.24s-3,10.55-4.75,16.29Zm22.89-69.86c-.26-1.67-.51-3.35-.77-5l-.84-.1-5.16,10,.61.36,6.25-5.37c-2,3.95-6.86,6.09-7.38,12.2,2.79-3,5.13-5.12,6.91-7.64C143.71,149.82,143.25,147.93,143.34,146.42Zm-6.71,16.3c2-2.06,4.12-4.06,6-6.22a17.12,17.12,0,0,0,1.8-3.26,27,27,0,0,0-7.84,5.83c-.9,1-.77,2.92-1.1,4.43-.71,1.7-1.43,3.41-2.14,5.12l-.9-1.24,12-10.17-.27-.31ZM106.39,274.9,97,286.32l.61.57,15.12-13.81L106.27,275c-1.21.05-2.79-.38-3.57.23a98.81,98.81,0,0,0-8.94,7.92c-1.13,1.13-1.64,2.86-2.43,4.32l.68.44ZM143.05,165q1.08-2.17,2.18-4.33c-8.74,5.78-12.29,10.37-11.51,13l9.44-8.82c-2.93,3.24-5.76,6.59-8.84,9.68-1.61,1.63-4.19,7.89-3.56,10.05.05.16.81.12,1.24.17l-1.44,3.82c2.81-2.64,4.95-5.61,7.54-8.12,3.43-3.3,5.21-5.88,5.38-9.46-2.42,2.56-4.78,4.84-6.88,7.33-1.72,2.05-3.15,4.36-4.7,6.55a12.42,12.42,0,0,1,4.89-8.87,37.44,37.44,0,0,0,6.48-6.35C144.29,168.45,146.18,166.42,143.05,165Zm59.86-39.84a60.27,60.27,0,0,1-6.23,3.45c-4.69,1.92-9.3,3.84-12.43,8.69,4.2-1.34,7.88-3,11.72-3.62,4.45-.75,6-4.08,7.94-7.25.07-.12-.72-.77-1.11-1.17,6.28-3,5.64-10.27,9.73-14.61l-.81-.71-10.42,8.78.68,1,5.71-3.25.36.64-12.53,8,1.83.55-3.18,2.07.33.61ZM83.16,285.51l-3.22,5.81.66.69,13.47-14.47.6.56-7.89,9.25.89.77L100.13,275C92.47,276.13,87,280.93,81,284.61c-.4.25-.47,1-.69,1.56l-6,5.68.85.92Zm87-176.45c-.34-4.43-.68-8.86-1-12.82-5.15,7.25-7.58,24.33-3.72,29.16.31-7.24-1.14-14.46,1.88-21.14v18.11l1,0c.21-3.62.36-7.24.69-10.84a8.58,8.58,0,0,1,1.22-2.59l1.43.37c.76-3,1.73-6.07,2.22-9.17a44.42,44.42,0,0,0,.07-6.83l.84-.08c.24,2.14.47,4.27.7,6.41l1.24,0c.26-3,.51-6,.83-9.9.29,2,.47,3.13.64,4.3l.79.12,1.53-6.83.62,1.26,9.5-17.89a1.62,1.62,0,0,0-1.52.59c-5.2,6.52-10.33,13.1-15.61,19.56-2.45,3-2.76,6.29-2.6,10C171.08,103.54,170.47,106.31,170.19,109.06Zm-3,66.63c-3.89,1.48-8.37,2.2-11.52,4.63-4.89,3.76-8.94,8.64-13.21,13.17-1.86,2-3.39,4.26-5.07,6.4l.59.47,8.91-8.69.38.39-3.48,5.87c5.77-2.72,5.62-9.21,9.31-14.14l-2.58,7.76,1,.41c3.38-3.71,3.19-10.15,9.36-12.64-2.25,4.13-4.17,7.63-6.08,11.14l1,.66c1.07-1.39,2.17-2.76,3.21-4.17,2.77-3.77,5.52-7.57,8.27-11.35l-6.31,11.46,1.37.85q4.53-6.71,9-13.42l.66.42q-2.53,5.07-5.05,10.15l.86.55,9.06-13.42,1,.6q-2.7,4.65-5.41,9.28l.7.51,9.56-12.12.56.52-6.69,9.43.73.53,12.17-12.87C179.11,169.71,171.35,171,167.19,175.69Zm-40,10.3c2.23-1.09,1.27-2.6.6-4.14-2-4.58-4-9.18-5.94-13.78l.67-.29q3,6.76,6.08,13.54c1.28-8.87-6-15.78-4.58-24.54,1.76,5.28,3.48,10.47,5.21,15.65L131,172c-.49-2.13-.66-4.41-1.55-6.36-2.09-4.57-3.55-9.21-3.14-14.29q2.23,7.31,4.46,14.62l.93-.27q-1.53-10.66-3.07-21.33l-.79-.27c-.49,2.44-1,4.89-1.46,7.33-.52.11-1.4.1-1.49.36-1.08,3.08-2.15,6.17-3,9.32a48.92,48.92,0,0,0-1.38,7.1c-.28,2.4-1,5.13-.18,7.18,2,5.11,4.85,9.92,7.35,14.85l1.37-.65c-.58-1.2-1.16-2.4-1.73-3.6Zm-43,48.86.08.09c2.74-4.29,3-5.79,2-9l-7.1,11.82-1-.58c2.16-5.67,8.51-9.72,7.17-17.46l-6.52,11.5-1.26-.67a94.84,94.84,0,0,1,5.12-9.15c1.95-2.8,2.14-5.22-.06-7.93-1.68,3.64-3.34,7.21-5,10.79l-.67-.27L81,208l-1.31-.34q-1.64,3.8-3.26,7.59l-.32-.1,2.28-9.65-1-.26-1.33,2.21-.36-.14c.3-1.37.61-2.73,1.14-5l-2.11,1.48-1.7-2.94a101.6,101.6,0,0,0,.29,16c.88,9.71,3,19.34,1.65,29.17l-2,14.56-8.79-10.61c2.65,7.48,10.32,12.19,9.9,21.15a9.2,9.2,0,0,0,1.07-4.28c-.63-7.7,3-13.78,6.9-19.95,1.89-3,2.68-6.67,3.9-10.06C86.54,235.19,85.6,234.77,84.2,234.85ZM185,177.61l-.09-.09,3.34,2.12c-7.33.22-42.56,17.63-45.22,22.81,5.51-.15,10.71,3,17,.38l-13.57-1.74c6.17-.76,12.25,2.43,18.38-.5,1.54-.73,3.4-.79,5-1.42,7.52-3,12.65-9,17.77-14.76,3.8-4.32,6.92-9.24,10.18-14,.42-.6-.11-2.72-.28-2.73-2-.11-4.55-.7-5.83.29-3.6,2.8-6.67,6.28-10,9.5l.6.73Zm-67.68,31c3.57-4.57,3.74-9.77,3.22-15.27l-9.62,13-1-.77c1.16-1.6,2.3-3.2,3.47-4.78,1.89-2.55,3.94-5,5.62-7.67,1.07-1.69,1.79-3.76-.82-5.07l.09.09c.23-1.91,1.12-4,.56-5.69-1.4-4.1-3.46-8-5.43-12.32l-2.88,7.58c0-4.9,4.78-9.68-.62-14.64l-2,4.26c.88-7.23.88-7.23-1.8-8.32-3.48,4.9,1.87,9.65.62,14.51l-.92.13c-.92-4.13-1.83-8.27-2.78-12.54-1.29,3.07-2.67,6.08-3.81,9.18a15.51,15.51,0,0,0-.41,3.77c-.62.81-1.55,1.52-1.82,2.43A99.82,99.82,0,0,0,94.36,187c-1.68,9.61-2.29,19.2,1.89,28.43,1.46,3.23,3,6.4,4.62,9.8,2.63-2.95,2.44-5.13-.11-7.46-3-2.74-2.88-2.87-2.82-7.2l4.8,6.08,1-.65c-3.1-5.65-9-10-8.38-17.08l9,16,1.42-.68c-.85-2-1.37-4.32-2.61-6.08-3.12-4.43-5.93-8.93-6.8-14.4l7.12,11.62,1.5-.89c-2.29-5.69-8.11-9.63-9.4-16.72l9.77,13.28c.15-7.82-6.55-11.17-8.15-17.8l6.22,8,.91-.62-5.92-10.83.52-.29,5,5.7,1.15-.83-6.37-10.55,6.58,6.76c1.68-4.42-3.12-5.81-3.78-9.15,3.86,2.92,6,6,5.61,11.12-.58,7,.06,14.14-.21,21.21-.22,5.63-.39,11.39-1.73,16.81-2,8.14-3.29,16.69-8.73,23.63a10.58,10.58,0,0,0-.82,2.11c7.79-6.16,8-16.11,14.65-22.65l-3.42.18a27.92,27.92,0,0,0,10.54-15.45Zm49,24.65c-6.49-1.34-63,16.17-65.4,20.48,4.94-2,9.51-1,14.11.47s9.35,2.73,14,4.08l.32-1-16.13-5.94.39-1.08c4.82,1.76,9.6,3.66,14.5,5.22,1.9.6,4.29,1.11,6,.5,5.85-2.06,11.51-4.64,17.24-7l-.37-.8-16.17-3.57c.09-.36.17-.72.25-1.08,2.25.58,4.49,1.23,6.76,1.71s4.86,1,7.32,1.29c2.18.24,4.62.83,6-1.68l-15.3-2.3.14-.95c4.26.53,8.52,1.08,12.78,1.58,4.89.57,7.06-.79,8.94-5.65l-6.14-.56C159.92,235.9,164.36,238,166.36,233.22Zm-29.28,51.37c-5.75-2.2-61,7.7-64.08,11.52,8.55-3.7,15.1,2.49,22.22,4.7,6.85,2.13,12.09,1.13,17.73-1.85l-9.68-6.68c.2-.31.4-.62.61-.93,4.63,1.62,7.46,7.87,14.14,5.94L109.28,292l.54-.9c2.58,1.37,5.16,2.72,7.73,4.1s4.07.92,5.65-1.45l-10.63-3.93.37-1c3.44,1.13,6.85,2.36,10.33,3.32a5.23,5.23,0,0,0,3.54-.27c2.75-1.53,5.31-3.39,8-5.14l-1.17-1.25ZM63.22,233.21,72,244.82c1.33-4.06-1.83-5.65-3.37-8.07s-3.09-4.82-4.63-7.22l.42-.23,7.79,10.2,1.41-.95-9.2-15.38,1-.58,8,12.63c-.91-8.54-2.52-15.77-6.53-22.41l1-.35q1.52,2.52,3,5l1.08-.56-3.3-8.08L70.16,211l1-.72c-.68-2-1.37-3.95-2.18-6.28a8.62,8.62,0,0,0-.84,1.28c-3.49,9.08-4.95,18.61-6.22,28.17-1.11,8.36,3.85,19.39,10.62,23.57-.17-6.49-6.93-9.09-8.77-15.5l7.77,8.92a4.12,4.12,0,0,0,0-3.4,25.6,25.6,0,0,0-3.64-4.29A16.37,16.37,0,0,1,63.22,233.21Zm54.22,10.58.78.51,11.24-15.6.58.44-7.28,10.72,1.14.86,14.25-15.28c-12.31,1.31-28.22,12.19-30,20.72l6.34-5.59.22.29-2.43,3.86,1,.72,7.7-9.29.55.3ZM186,101l-1.09-.89c-5.78,5-11.74,10.09-14.52,17.34-3.39,8.86-5.8,18.11-8.44,27.25-1.39,4.82-2.36,9.77-3.52,14.66l1,.31c1.36-3.81,2.87-7.57,4-11.44,1.53-5.15,2.62-10.44,4.19-15.58,2.3-7.55,5.37-14.64,12.41-19.27,1.44-1,2.19-3,3.26-4.46l-.78-.58-9,8-.41-.4Q179.57,108.44,186,101ZM138.56,236.74c7-2,9.75-8.75,15.91-12.53-9-1.66-13.49-.2-18.64,5.59-2.66,3-5.34,6-8,9,.33.34.66.67,1,1l5.78-5c-.62,1.33-1.16,2.51-2.11,4.54,7.5-3,9.84-10.57,16.18-13.48Zm-3.74-84.48.9.05q1.35-13,2.68-25.95l-1.51-.16c-.2,2.28-.41,4.56-.6,6.71l-1.2-1.68c-7.26,9.1-5,19-2.84,29a2.64,2.64,0,0,0,.63-1.61c0-.58-.23-1.32,0-1.74,1.32-2,1.18-2,.92-3.53-.35-2.05-.39-4.16-.55-6.24l1.1-.07C134.53,148.75,134.68,150.51,134.82,152.26Zm59.57-35C183.55,122.63,178.15,129,179,139l8.11-14.23.5.26q-1.54,4-3.1,8l.62.41,18.42-21.15c-7.65,1-8.75,8.16-13.68,11.24ZM144.67,235.05l.44.67c3.11-1.16,6.48-1.9,9.27-3.6s5.27-4.49,7.88-6.79l.91.92-6.29,4.88.8,1,16.15-5.31-2.61-1.3,3.34-1.07-.21-1.12c-6.38.37-13.17-.48-19,1.51C151.13,226.32,148.18,231.52,144.67,235.05Zm-30.95,48.53.56.86,12-7.25c-10-6.17-17.25-1.77-23.88,8.5L117.73,276l.48.8-10.08,6.8.65,1L121.4,277l.37.61Zm81.81-143.14c-11,1.75-19.83,7.74-28.63,13.89C176,148.89,186.88,146.89,195.53,140.44Zm-22.21,6.82c1.28-.63,2.54-1.29,3.84-1.87,5.46-2.45,10.84-5.09,16.42-7.21,3.32-1.27,3.46-.9,4.25-4.5C189.53,138.3,179.68,139.32,173.32,147.26ZM180,126.47c-4.94.87-10.83,12.34-9.17,19,1.58-4.69,3-8.78,4.35-12.88l.9.29q-1.51,4.94-3,9.86C178,138.37,177.4,131.77,180,126.47Zm-3.89-20.1c4-4.93,11.63-7.37,10.91-15.66A25.89,25.89,0,0,0,176.07,106.37ZM138.27,281.9c-7.32-5.12-11.41-4.85-17,1.12l8.11-2.1.15.54-3.27,1.09.16.79Zm27.39-135,9-19.46C169,132.39,166.43,139.15,165.66,146.85ZM140.57,134l-3.4,11.68C142.24,140.32,142.74,138.25,140.57,134Zm49-51.3-1.3-.91q-3.3,5.31-6.59,10.62l1.19.77Q186.23,88,189.58,82.73ZM134.39,206.17l13.61-2C142.39,202.32,138.33,203.88,134.39,206.17Z" transform="translate(-16.98 -62.83)"/><path d="M118.18,188c-1.22,2.41-2.29,4.92-3.73,7.18a36.6,36.6,0,0,1-3.92,4.46l-1.08-.9,8.83-10.64Z" transform="translate(-16.98 -62.83)"/><path d="M117.93,183.83l-7,10.17-.93-.64c.71-4.49,4.61-6.86,7-10.23Z" transform="translate(-16.98 -62.83)"/><path d="M115.58,177.58c.25,5.11-4.22,6.16-5.52,9.19C109.3,182.46,112.85,180.83,115.58,177.58Z" transform="translate(-16.98 -62.83)"/><path d="M119.55,200.36,110,211.64l-.93-.76,9.72-11.23Z" transform="translate(-16.98 -62.83)"/><path d="M117.4,208.49l-8.48,11.09L108,219c1.1-1.59,2.13-3.24,3.3-4.78,1.43-1.87,3-3.69,4.52-5.45.24-.27,1-.09,1.5-.14Z" transform="translate(-16.98 -62.83)"/><path d="M137.94,253.19l-15.08-5.83.42-1.11,14.9,5.77Z" transform="translate(-16.98 -62.83)"/><path d="M130.38,245.47,145.67,250C142,250.84,136.6,249.45,130.38,245.47Z" transform="translate(-16.98 -62.83)"/><path d="M132.4,254.37l-12.15-4.44.38-1,12.26,4.61Z" transform="translate(-16.98 -62.83)"/><path d="M147.54,238.88l11.05.92-.07.95-11-.94Z" transform="translate(-16.98 -62.83)"/><path d="M185,177.61l5.71-7,.56.34c-.57,1-1.14,2-1.85,3.23h3.4l.28,1.05-8.18,2.26Z" transform="translate(-16.98 -62.83)"/><path d="M161.06,194l14.51-1.83c.05.39.09.77.13,1.16l-14.45,1.52C161.19,194.52,161.12,194.23,161.06,194Z" transform="translate(-16.98 -62.83)"/><path d="M186.49,183.6l-12.17,3.25-.29-1.11,12.22-3Z" transform="translate(-16.98 -62.83)"/><path d="M168.57,198.09l-13.63-.89,0-.75,13.6.7Z" transform="translate(-16.98 -62.83)"/><path d="M171.47,188.86c1.62.09,3.24.24,4.86.23a11.23,11.23,0,0,1,4.9.54l-9.68.58C171.52,189.76,171.5,189.31,171.47,188.86Z" transform="translate(-16.98 -62.83)"/><path d="M104.31,300.37,92.55,293.6l.57-1,11.76,7Z" transform="translate(-16.98 -62.83)"/><path d="M107.53,299.32l-9.22-6.2.66-1,9.08,6.18Z" transform="translate(-16.98 -62.83)"/><path d="M100.82,301.16l-11.67-6.6.33-.65,11.61,6.44Z" transform="translate(-16.98 -62.83)"/><path d="M84.2,234.85c.14,4-3.08,5.8-5,8.43l-.91-.64c2-2.56,4-5.13,6-7.7Z" transform="translate(-16.98 -62.83)"/><path d="M127.27,186c-1.6-2.85-3.33-5.63-4.75-8.56a16,16,0,0,1-1.15-5c1.95,3.88,3.93,7.74,5.82,11.65a4.69,4.69,0,0,1,0,1.95S127.27,186,127.27,186Z" transform="translate(-16.98 -62.83)"/><path d="M157.92,225.88l-8.32,6.71-.59-.75,8.3-6.73Z" transform="translate(-16.98 -62.83)"/><path d="M784.87,377.7c-3.94-1.5-8.74-2.49-12.55-5-5.77-3.77-6.05-11-.78-15.45,5.73-4.82,12.05-8.95,18.06-13.46,22.3-16.75,35.5-39.5,43.27-65.83,3.53-12,7.75-23.64,15.39-33.76a39,39,0,0,1,25-15.58c7.39-1.29,13.35-4.15,17.48-10.84,3.46-5.59,7.2-11.23,11.86-15.78a64.52,64.52,0,0,1,16.69-12c3.08-1.49,8.12-.43,11.68,1,3.17,1.25,3.28,5,1.54,8.13-1.54,2.78-3.57,3.56-6.88,2.39-1.65-.58-4.27.38-6,1.43a40.89,40.89,0,0,0-16.07,19c-3,7-1.49,14.06,2.64,19.83,8.67,12.15,9.07,25.26,2.56,37.38a224.32,224.32,0,0,1-26.32,39c-20.89,24.61-45.68,44.48-77,54.68C799.13,375,792.39,376,784.87,377.7Zm15-14.86-.09-.11-19.8,7c2.76.13,6.79,1.14,10.42.33a131.29,131.29,0,0,0,22.52-6.75c27.64-11.71,49.59-30.95,68.68-53.65,10.15-12.08,19.28-24.81,24.38-40.1a27.25,27.25,0,0,0-.56-18.7c-1.13-3-4.26-5.32-6.48-7.94l-1,.87c5.2,7,5.24,7.21,3,11.5l-.86-8.09c-1.71,7.05-3,12.33-4.28,17.62,1.8-17.84,1.8-17.84-1.51-21.42-.92,7-1.87,14.19-2.82,21.38l-1-.12q1.14-11.76,2.29-23.53L891,241q-1.15,7.84-2.3,15.68a24.94,24.94,0,0,1-.57-6.62c.08-5.13,2.08-11.24-6.3-11.92a1.91,1.91,0,0,1-1.3-.95c-2.14-4.47-6.13-3.83-9.33-2.54-5,2-10.3,4.2-14.19,7.73-11.15,10.12-15.36,24.24-19.72,38-9.63,30.44-25.47,56.27-53.13,73.69a40.73,40.73,0,0,0-7.59,6.26c-1.08,1.13-1.19,3.18-1.74,4.81,1.79.53,3.67,1.74,5.34,1.48C786.76,365.64,793.28,364.16,799.82,362.84Zm89.25-133.07.89,1c12.38-11.67,16.77-32,37.46-34.67-2.36-3.69-5.4-3.61-7.91-1.84-5.17,3.67-10.82,7.16-14.73,12C898.85,213.53,894.24,221.88,889.07,229.77Z" transform="translate(-16.98 -62.83)"/><path d="M896,282.61c-9,17.76-22.32,31.64-35.73,45.49Z" transform="translate(-16.98 -62.83)"/><path d="M846.66,335.92c13.67-12.59,23.9-27.65,31.86-44.34C871.86,309.21,861.93,324.48,846.66,335.92Z" transform="translate(-16.98 -62.83)"/><path d="M893.12,273.27c-3.45,11.76-9.42,22.2-17,31.81Z" transform="translate(-16.98 -62.83)"/><path d="M799.82,362.84,820,350.61c-6,5.27-12.19,10.36-20.29,12.12Z" transform="translate(-16.98 -62.83)"/><path d="M906.11,263.91l-7.58,17.45-1.29-.54q3.78-8.64,7.54-17.3Z" transform="translate(-16.98 -62.83)"/><path d="M775.08,495.38c3.16,1.24,7.83,1.68,9,4,1.14,2.12-.85,6.5-2.41,9.37-4,7.38-18.06,14-26.06,12.41-1.32-.27-3.16-2.75-3.12-4.17C752.79,505.72,763.35,496,775.08,495.38Zm-16.66,21.93c7.92-.06,18.54-6.31,21.77-11.73,1.89-3.17.39-4.42-2.46-5.18-8.35-2.25-19.14,4.74-20.57,13.52C757,515.12,758.1,516.52,758.42,517.31Z" transform="translate(-16.98 -62.83)"/><path d="M732.74,73.64c0-7.21,2.18-8.53,8.57-4.9,8.57,4.88,15.14,11.39,15.79,21.94.33,5.27-1.73,6.58-6.76,4.81C739.91,91.83,732.72,82.91,732.74,73.64ZM746.62,85.4l5.73,7.83c.18-11.81-5.52-19.43-15.69-21.85-1.58,8.15,2.46,15.06,10,17Z" transform="translate(-16.98 -62.83)"/><path d="M50,616c-2.45,4.31-4,9.6-7.55,12.69-4.7,4.14-10.65,7.2-16.52,9.55s-9.53-1.26-8.83-7.57c1.22-11,14.19-21.88,25.24-21.18C46.06,609.7,48.7,611.19,50,616Zm-6.25-2.32c-12.46,1.06-21.1,9.12-22.07,19.89,7.87,1.38,18.3-6.12,21.5-15.89l-11.55,7.6-.76-1.1Z" transform="translate(-16.98 -62.83)"/></g></svg>