<svg id="Calque_1" data-name="Calque 1" xmlns="http://www.w3.org/2000/svg" viewBox="0 0 973.91 895.63"><defs><style>.cls-1{opacity:0.05;}</style></defs><g class="cls-1"><path d="M948.61,643.27c6.42,3.11,12.32,5.65,17.9,8.76,7,3.88,13.73,8.1,20.39,12.46a10.32,10.32,0,0,1,3.73,4.94c.85,2.39-.38,4.47-3.19,4.37-21-.71-40.6,5.77-60.6,10.61-21.79,5.28-43.05,4.15-63.5-6.56-6-3.15-13.23-4.35-20.05-5.53a31.2,31.2,0,0,0-21.65,3.83c-7.3,4.29-14.88,8.1-22.31,12.17-4,2.15-7,1.39-9-2.51-1.86-3.68-.55-6.26,3-8.17,8.32-4.52,16.53-9.26,24.86-13.75,8.54-4.6,15.71-10.59,20.36-19.24,14.52-27,39-37.67,67.82-41,20.81-2.39,41.5-1.55,61.83,4,3.67,1,7.18,2.57,10.78,3.83,4.25,1.5,4.68,2.72,1.43,5.58-6.74,5.94-13.62,11.72-20.52,17.47C956.33,637.46,952.63,640.16,948.61,643.27Zm28.85,24.14c-2.25-.51-4.68-.63-6.71-1.6-8.83-4.21-17.49-8.76-26.31-13-4.63-2.22-10.66-.2-13.46,3.65l26.17,9.72-.45,1.36c-2.38-.58-4.82-1-7.13-1.76-6.6-2.25-13.11-4.75-19.73-6.92-1.68-.56-3.65-.26-5.48-.35l-.21,1.69,21,9.4a6.9,6.9,0,0,1-4.34,0q-7.64-3-15.14-6.3c-3.51-1.53-6.68-1.79-9.5,1.74l20.93,7.1c-.13.52-.27,1-.4,1.56-4.66-1.17-9.41-2.07-14-3.56-6.94-2.26-13.76-5-20.31.88.36.55.85,1.29,1.19,1.79l-8.29-1.29c-.15.81-.29,1.62-.44,2.43l16.71,3.65c-.09.35-.17.7-.26,1.06L886.28,674l-.24,1.27,5.26,2.37c-6,.48-10.92-4.76-17.17-1.94,2.88,1.6,5.82,3.18,9,3.7a110.39,110.39,0,0,0,43.93-1c15.78-3.69,31.13-9.77,47.74-9.36.83,0,1.69-1.19,2.53-1.82l4.85,1.25c-10.7-9.52-21.36-16.31-33.6-20.61-2.78-1-4.7-.94-5.67,1.62,3.74,1.83,7.29,3.47,10.75,5.28C961.58,659,969.51,663.21,977.46,667.41ZM971.23,616c-7.58.56-14.87.76-22.06,1.7-8.2,1.08-16.33,4-24.45,3.86-6.6-.1-11.87,2.14-17.49,4.36-2.61,1-5.16,2.23-7.77,3.29-12.28,5-25.05,9-36.76,15.1C840.92,655.56,819.76,668,798.36,680a39.82,39.82,0,0,0-3.92,2.84l1,1.46c3.82-2.13,7.66-4.22,11.45-6.42,14.3-8.28,29.39-13,46.13-10.34,4.1.64,8.16,1.56,12.28,2,30.66,3.27,54.87-11.77,78.09-28.51C953.22,634,961.54,624.81,971.23,616Zm-61.32-6.14-19.86,19.29c9.12-2.08,10.06-2.63,15-8.2,5.84-6.58,12.75-10.29,18.53-9.76-2.23,1.75-4.36,3.29-6.35,5s-3.81,3.58-5.71,5.38l1.32,1.6c5.53-3.59,11.06-7.18,16.48-10.68-.16.44-.36,1-.76,2.16l7.31-2.64.19.6-5.76,3.18.37.87,33-3.78c0-.55-.06-1.1-.1-1.64-7.75-.63-15.5-1.29-23.25-1.87-15-1.11-29.94-2.4-45,1.14-20.19,4.75-37,14.33-49.44,31.15-3.15,4.26-6.93,8.06-10.42,12.08l1,1c3-2.53,6-5,8.87-7.59,4.5-4.07,8.94-8.21,13.37-12.36,3.94-3.69,7.84-7.44,11.76-11.17l.52.62L856.84,641.5l1.35,1.4c3.19-2.67,6.92-4.9,9.46-8.09,7-8.76,16.49-14,25.48-20l-24.22,22.39,1.24,1.53c3.18-2,6.65-3.64,9.48-6,6.29-5.37,12-11.39,18.46-16.59C901.29,613.5,905.48,612.11,909.91,609.82Z" transform="translate(-16.98 -62.83)"/><path d="M939.4,638.13l-27.91-9.24c13-3.61,22.14,5.54,33.15,6.54-9,6.5-17.35,14.42-29.88,12l-30-5.68c6.47-3.26,12.29-2,18-.77,6.48,1.35,12.86,3.2,19.36,4.38,2.17.4,4.59-.63,6.89-1,0-.49.07-1,.11-1.47l-23.43-8.3c4.08-1.8,7.61-1.73,13.73.73,3.7,1.49,7.25,3.31,10.91,4.9S937,641,939.4,638.13Z" transform="translate(-16.98 -62.83)"/><path d="M911.07,656.9c-16.57,8.31-29.88-3.49-44.68-6.41.11-.56.21-1.13.32-1.7,6.27,1.26,12.6,2.32,18.81,3.86,4.32,1.07,8.38,3.34,12.73,4.09C902.41,657.46,906.79,656.9,911.07,656.9Z" transform="translate(-16.98 -62.83)"/><path d="M919.49,652.67c-15.61,3.42-28.54-3.54-42.08-6.45l.28-1.63Z" transform="translate(-16.98 -62.83)"/><path d="M851.29,655.14c12.79-3.18,25.12,4.67,38.39,6.9-.11.6-.23,1.21-.34,1.81-7.19-1.42-14.41-2.67-21.56-4.29C861.84,658.21,856,656.42,851.29,655.14Z" transform="translate(-16.98 -62.83)"/><path d="M872.82,666l-32-4.54C851.51,662.84,863,658.42,872.82,666Z" transform="translate(-16.98 -62.83)"/><path d="M954,628.41l-20.84-3.79C940.49,622.59,946.8,624.32,954,628.41Z" transform="translate(-16.98 -62.83)"/><path d="M920.7,677,908,672.6c.17-.5.34-1,.5-1.51l12.7,4.31C921.05,675.91,920.88,676.43,920.7,677Z" transform="translate(-16.98 -62.83)"/><path d="M740.71,781.91c34.82,1,61.21,11.71,78.55,37.85,18.38,27.71,17.81,57.68,3.34,86.86-30.72,61.93-103.37,62.59-139.49,32.2-27.37-23-38-53.36-30.28-88.05,7.55-34,30.71-55,63.9-64.54C725.72,783.64,735.24,782.86,740.71,781.91Zm-2.62,152.87c34.48.31,63.47-16.35,76.78-43.89,10.79-22.34,13.52-45.68-1.69-67.38-34.71-49.5-115.08-45.36-145.26,7.16-18.7,32.54-9.9,69.1,21.57,89.45C705.34,930.37,723,934.28,738.09,934.78ZM672,915.42c21,30.55,51.92,39.83,87,33.68,27.47-4.8,51.23-28.84,59.25-51.09C791.84,946.78,720.66,956.06,672,915.42Z" transform="translate(-16.98 -62.83)"/><path d="M672.64,863.94c-1.45-29.27,31.17-59.74,58.53-63.25,24.94-3.21,45.86,2.24,63,21.31,12.12,13.49,16.12,28.62,12.48,46.2C801,895.73,780,917.64,752.77,921.34a81,81,0,0,1-64.54-18.59C676.6,893,672.46,879.05,672.64,863.94ZM742,805.46c-23.29-1.88-55.37,22.4-60.72,43.89-4.38,17.58-3,34.87,10,47.16,16.6,15.79,38.45,21,61.25,18.76,18-1.73,30.57-13.48,39.89-27.5,8.19-12.32,13.47-26.86,9-42.08C794.18,821.08,767.76,803.69,742,805.46Z" transform="translate(-16.98 -62.83)"/><path d="M775.07,939.62c-13,8.82-35.93,11.24-56.37,6.16C737.87,947.42,757.07,949.28,775.07,939.62Z" transform="translate(-16.98 -62.83)"/><path d="M740.86,943.91l-30.51-3.51.18-1.58,30.68,4.06Z" transform="translate(-16.98 -62.83)"/><path d="M692.72,875.09c-5.47-9.8.47-11.26,7.06-11.31,4.24,0,9.54.05,12.36,2.45,1.88,1.59.61,7.4,0,11.21a13.42,13.42,0,0,1-3.29,7.19c-1.9,1.89-4.93,3.56-7.49,3.59-1.91,0-4.28-2.41-5.67-4.31-2-2.77-3.35-6-5-9.1Zm7.24-8.61-2,2,.79,10.47c7.33-.84,12.16-4.6,10.26-7.92C707.62,868.56,703.09,867.92,700,866.48Z" transform="translate(-16.98 -62.83)"/><path d="M755.84,850.23c-.82-4.57-2.31-8.89-2.17-13.16.18-5.53,3.5-9.91,9.11-11s9,2.13,11.36,7.21c4.58,9.77,1.2,15.94-9.82,16.91C761.89,850.41,759.42,850.23,755.84,850.23Zm6.51-16.75c-5.68,4.12-5.61,8.51.27,11.15,1.72.77,7.08-2,7.62-4C772.12,833.6,764.92,835.53,762.35,833.48Z" transform="translate(-16.98 -62.83)"/><path d="M728.82,817c4.75,0,8.87,4.66,9.09,10.32.17,4.3-7.85,14.22-11.53,14.27-5.39.09-12.6-7.38-12.49-12.92C714,822.42,720.89,817.05,728.82,817Zm-.61,4.9c-5.55,1-8.94,2.48-8.22,7,.39,2.42,3,4.47,4.69,6.69,2.72-2.15,6.17-3.88,7.79-6.67C733.12,827.76,729.75,824.31,728.21,821.91Z" transform="translate(-16.98 -62.83)"/><path d="M714.21,896.62c2.28-4.35,4-9.16,7-12.84a13.39,13.39,0,0,1,9.12-4.54c2.42,0,5.53,3,7.14,5.44,4.17,6.33-2.76,8-5.65,10.86C726.14,901.17,718.43,901.3,714.21,896.62Zm4.95-3.34,2,2.14L733,888.7l-.06-2.17c-2.08-1.07-5.47-3.51-6-3C723.93,886.38,721.66,890,719.16,893.28Z" transform="translate(-16.98 -62.83)"/><path d="M771.33,882.48c-4.44.71-8.22-.52-8.57-6.24-.28-4.56,6.63-10.66,11.8-10.78,5.65-.14,11.24,4.93,11.13,10.08C785.58,880,781.09,882.27,771.33,882.48Zm9.77-7.72.3-1.9c-2-1.38-4.08-3.94-6-3.85-2.4.1-4.71,2.41-7.06,3.77,2.38,1.31,4.64,3.16,7.18,3.74C777.14,876.89,779.21,875.41,781.1,874.76Z" transform="translate(-16.98 -62.83)"/><path d="M751.66,887.65c4.73,2.74,9,4.06,11.1,6.94,1,1.32-2.06,5.8-3.64,8.65-.44.81-2.16,1.31-3.28,1.28-4-.1-8.07-.51-12.11-.76-3.5-.22-5.56-2.74-3.67-5.22C743.12,894.51,747.47,891.46,751.66,887.65ZM746,896.93c5.25,3.87,8.24,3.73,10.75-.45C753.2,895.36,749.76,891.09,746,896.93Z" transform="translate(-16.98 -62.83)"/><path d="M693.52,852.21c-.84-6.17,1.55-10.91,6.75-12.57,2.3-.74,6.54,1.85,8.63,4.1,1.37,1.47,1.61,6.06.35,7.52C704.62,856.63,699,854,693.52,852.21Z" transform="translate(-16.98 -62.83)"/><path d="M725,866.22c-3.26-2.91-6.48-4.5-7.43-7-1.2-3.12,4-7.48,8-7.55,4.48-.09,10.42,4.49,8.84,7.26S728.82,863.45,725,866.22Z" transform="translate(-16.98 -62.83)"/><path d="M756.89,869.41c-1.3,2.24-3,3.93-3.22,5.77-.58,5.86-4.41,6.57-8.74,5.57-4.5-1-7.8-6.93-6.54-10.44,1.41-3.9,8-6.67,12-4.84A64.48,64.48,0,0,1,756.89,869.41Zm-5,1.75-1.7-2.91-7.66,3.26c1.12,1.17,2.63,3.52,3.3,3.3C748,874.09,749.84,872.45,751.84,871.16Z" transform="translate(-16.98 -62.83)"/><path d="M784.47,844.09c3.16,4.7,6.1,7.46,6.78,10.7.4,1.9-2.34,5.78-4.49,6.59-3.33,1.24-10.62-4.65-9.59-7.29C778.35,851,781.07,848.58,784.47,844.09Z" transform="translate(-16.98 -62.83)"/><path d="M748.48,817.57,744,815.41l.51-1.16h13.91l1.09,2a110.72,110.72,0,0,1-9.46,6.75c-.7.4-2.58-1.22-3.91-1.91C746.94,819.91,747.72,818.72,748.48,817.57Z" transform="translate(-16.98 -62.83)"/><path d="M774.38,894.05l-14.88-6.54c1-1.15,1.5-2.06,1.78-2,4.59,1,9,4,14,1,.1-.06,1.73,1.59,1.57,2.08A47.19,47.19,0,0,1,774.38,894.05Z" transform="translate(-16.98 -62.83)"/><path d="M347.61,372.52c1.2-18.11,1.17-37.13,4-55.74,5.26-35,14.35-69,28.38-101.75,6.42-15,13-29.66,22.31-43.11,6.54-9.45,15-15,26.36-16.34,9.32-1.14,25,6.86,28.3,14.83,5.9,14.43,4.39,28.27-3.7,41.45a348,348,0,0,0-30.53,64.53,476.62,476.62,0,0,0-20.19,72.66,315.48,315.48,0,0,0-5,50.39,3.41,3.41,0,0,0,.26,1.94c1,1.42,2.24,2.71,3.38,4.05.81-1.39,1.95-2.69,2.37-4.19,2.92-10.5,5.15-21.23,8.65-31.53,4.17-12.25,13-21.66,21.13-31.43a144.56,144.56,0,0,1,30.63-28.13c6.71-4.49,14-7.61,22.49-8,10.52-.46,18.93,4,25.55,11.15,8.54,9.23,10.87,20.39,6.35,32.59-3.21,8.62-9.59,14.44-16.89,19.41-4.27,2.92-8.77,5.52-13.29,8.05-7.83,4.4-13.17,11.18-18.5,18.17a108.29,108.29,0,0,0-19.42,39.93c-3.14,12.71-2.78,25.87-.44,38.82.89,4.88,2.42,9.65,3.26,14.54a44.12,44.12,0,0,0,12.24,23.41c5.51,5.74,11.06,11.44,16.84,16.9,9.92,9.37,22,14.9,34.89,18.9,7.21,2.23,14.38,4.43,22.05,3.81,2.09-.17,4.18-.59,6.26-.57.9,0,2.49.79,2.55,1.34.1,1-.53,2.67-1.25,2.92-3.39,1.18-6.88,2.5-10.42,2.79-10.23.85-20.25-1-30.19-3.19-19.14-4.14-36.73-11.7-52.1-24a118.9,118.9,0,0,1-38.2-53.47c-.7-1.95-1.55-3.34-4.1-3.56a5.38,5.38,0,0,1-3.84-3c-1.65-5-2.85-10.14-4-15.27-.58-2.46-.65-5.05-1.28-7.49a3.56,3.56,0,0,0-2.25-1.87c-.35-.11-1.38,1.13-1.67,1.91a8.26,8.26,0,0,0-.37,3.25c.54,8.26.61,16.61,1.85,24.77,1.93,12.64,5,25.11,7,37.73,5.11,31.52,17.05,60.6,30.55,89.26,7.74,16.42,16,32.5,25.75,47.77,3.79,5.93,8.49,11.27,12.79,16.87a22.57,22.57,0,0,1,2.95,4c.49,1.1.69,3.33.14,3.68a5.51,5.51,0,0,1-4.14.39,9.52,9.52,0,0,1-3.4-2.57c-6-5.87-12.36-11.42-17.79-17.77-8-9.36-15.46-19.2-22.92-29-6.93-9.12-14.52-17.93-20.09-27.85-9.5-16.91-18.12-34.37-24.38-52.83-2.45-7.2-4.61-14.51-7.06-21.71-.88-2.59-1.31-5.51-5.2-6-1.25-.16-2.62-2.62-3.2-4.29-2.79-8-5.79-16-7.84-24.19-3.15-12.63-6.26-25.33-8.17-38.18-2.71-18.22-4.41-36.59-6.32-54.92C348,386.32,348,379.79,347.61,372.52Zm136.58-9.4.06.09a52.1,52.1,0,0,1,3.89-3.55c9.1-6.79,18.18-13.62,27.43-20.21,2.17-1.54,2.34-3,1.48-5.81L497.52,346.2l-.6-.68,2-1.4c5.4-3.82,10.69-7.8,16.25-11.39,2.45-1.58,2.46-3,.5-5.83l-35,23.77a22.29,22.29,0,0,1,2.33-2.18c10.18-7.35,20.33-14.73,30.62-21.94,2.2-1.54,2.59-2.64.52-4.41-13.94,6-25.87,15.06-38,23.68,11.21-10.22,23.83-18.38,37-25.61-.71-3-1.92-3.9-4.56-2.48-3.1,1.67-6.37,3-9.53,4.58-2.9,1.45-5.74,3-8.61,4.54l-.41-.74,19.38-11.34c-1.8-2.86-4-3.62-7-2-4.85,2.62-9.91,4.87-14.65,7.66-5.42,3.18-10.6,6.78-15.88,10.2l-.62-1,32.32-20.49c-2.19-.24-3.91-1-5.09-.48-6,2.57-11.8,5.42-17.63,8.28-2.36,1.17-4.6,2.6-6.89,3.91l-.58-1,24.08-13.67c-1.83-.11-3.34-.67-4.37-.19-7.1,3.27-14.14,6.7-21.12,10.22a59.25,59.25,0,0,0-5.77,3.75l-.65-1.08,23-13.5c-2.26-.31-4.66-.53-6.42.43-17.71,9.57-33.83,21.17-46.27,37.3a23.41,23.41,0,0,1-2.86,2.67l4.43-7.27c-8.05,6.75-13.88,15.18-19,24-8.87,15.25-12,32.36-14.15,49.49-1.36,10.93-2.35,22.2,1.41,33.08a14.12,14.12,0,0,1,.13,2.62c.63,4.47,1.31,8.94,2,13.4l1-.16c-.74-5.75-1.53-11.5-2.19-17.26a148.73,148.73,0,0,1,.66-40.92,111.68,111.68,0,0,1,15.56-41.52c1.44-2.32,3.05-4.53,4.58-6.79a27.1,27.1,0,0,1-1.62,3.6,119.27,119.27,0,0,0-18.56,57.31,151.18,151.18,0,0,0,4.53,47.93,26.54,26.54,0,0,0,1.16,2.95l1-.28c-3.79-15.82-5.37-31.76-3.37-48-.68,20.84,1.77,41.22,10,60.45s20,36.11,37.83,47.92a121.86,121.86,0,0,1-25.37-29.63,112.23,112.23,0,0,1-14.29-36.32c4,14.95,11.07,28.54,19.65,41.16a99.21,99.21,0,0,0,33.38,30.68c-12.45-8.23-21.45-19.81-30.52-31.31-7.81-9.91-17.82-33-17.25-40.52a106.33,106.33,0,0,0,18.36,39.18,136.41,136.41,0,0,0,30.13,30c10.81,7.76,32.3,17.79,39,17.65-17.29-6-33.63-12.87-46.38-25.92-12.45-12.74-24.89-25.55-30.8-43,12.08,22.61,27.84,41.78,50.36,54.71-4.73-4-9.86-7.56-14.49-11.7s-8.94-8.84-13.26-13.41c-6.65-7-10-12-10.36-15.23L456.74,506l.51-.39q-3.58-5.94-7.19-11.88l.95-.61,5.08,7.59c-9.7-22.49-13.52-37.17-12.27-46.85l2.66,17.08.87-.08c-2.41-13.16-3.15-26.62.26-39.34,3.37-12.55,8.83-24.68,14.53-36.43,5.83-12,15.38-21.11,26.22-28.71l.59.57-7.05,6.5.57.68c10.65-6.85,22-12.73,30.35-22.71l-.59-.84-14.68,10.35-.49-.71c5.79-4.58,11.65-9.07,17.31-13.81,1.35-1.13,2-3.09,3-4.66l-.9-.63a29.5,29.5,0,0,0-2.84,1.64c-8.69,6.23-17.34,12.52-26,18.73A23.31,23.31,0,0,1,484.19,363.12Zm-48-149.42h0c6.39-10.27,12.65-20.63,19.27-30.74,1.7-2.59,1.57-4.52.1-7.22l-15.46,21.92a1.61,1.61,0,0,1,.06-1.78c4.54-6.92,9-13.86,13.65-20.71,1.61-2.36,1.41-4.2-.92-6.25-11.3,13-19.65,27.81-29.19,41.84a4.2,4.2,0,0,1,.74-2.22c8.46-12.92,16.86-25.87,25.43-38.7,1.7-2.54,1.67-4-1.79-5.45l-20.89,28.83-.73-.48,20-29.28c-2.4-1.86-4.53-2-6.45.67-8.36,11.76-16.87,23.42-25.07,35.3-3.31,4.81-6,10.08-8.91,15.14,8.65-19.22,20.47-36.45,33.55-52.76-2.25-1.95-3.76-1.62-5.28.11-3.32,3.79-7,7.27-10,11.29-5.2,6.91-10,14.13-14.94,21.22,6.89-12.55,14.34-24.71,24.36-35.33-1.49,0-3.05.06-3.73.89-6.63,8.08-13.28,16.16-19.57,24.51-3.52,4.67-6.38,9.84-9.54,14.79,6.43-15,16.71-27.42,26.35-40.49-1.68.22-3.51.48-4.38,1.54q-10.32,12.47-20.29,25.23a62,62,0,0,0-4.46,7.35c-1.42,2.44-2.77,4.91-4.14,7.37,6-14.29,14.49-27,24.5-38.83a14.17,14.17,0,0,0-5.35,3.69,182,182,0,0,0-11.72,16,302,302,0,0,0-25.21,51.25c-9.34,24.46-15.68,49.64-20.79,75.2-1,4.78-1.47,9.66-2.18,14.49,6-30.16,13.47-59.86,25.35-88.3a19.32,19.32,0,0,1-.93,3.76c-3.68,11.67-7.49,23.31-11,35-6.69,22.24-10.58,45.09-14.07,68a200,200,0,0,0-1.64,49.26c1.83,19,3.48,38.07,6.5,56.9,2.57,16,6.88,31.69,10.66,47.46,1.22,5.09,3.2,10,4.84,15l1.19-.22c-22.7-71.13-27.29-143-9.49-215.7a4.36,4.36,0,0,1,.23,2.75c-2.47,13.89-5.7,27.7-7.25,41.7-1.53,13.76-1.53,27.71-1.88,41.58-.18,6.83.39,13.68.55,20.52s-.17,13.72.42,20.52c2.13,24.48,7.56,48.35,14,72,1.53,5.67,3.37,11.26,5.07,16.88l1.5,0c.26-1.63,1-3.35.69-4.88-.76-4.11-1.94-8.14-3-12.21-.43-1.71-.87-3.41-1.3-5.12l1-.26,10.73,35.73-.78.27L380,509.85a3.87,3.87,0,0,0-.48,3.28c3.9,11,8.1,21.89,11.75,33,5.49,16.66,13.67,32,21.69,47.51.61,1.18,1.31,2.3,2,3.42s1.33,2,2,2.94c-12.19-23.41-22.87-47.34-30.47-72.58,3.76,8.21,7.07,16.62,10.77,24.84s7.73,16.12,11.6,24.17,7.37,16.53,11.83,24.36,9.77,14.84,14.71,22.23a5.36,5.36,0,0,0-.94-2.86c-7.06-12.47-14.86-24.58-21-37.49-10.38-21.84-21.25-43.61-25-68-.89-5.79-2.38-11.49-3.59-17.24l1.07-.28c4.59,25.45,13.28,49.45,23.68,73.05,13.63,31,32.35,59,40.19,65.93-12.85-19.34-25.09-37.89-34.05-58.65s-16.55-41.69-20.43-64c2,6.6,3.51,13.33,5.42,20s4,13.32,6.49,19.79,5.71,12.91,8.64,19.33,5.67,12.68,8.76,18.9,6.38,12,9.59,18c-3.2-8.15-7.17-15.88-10.8-23.77a293.92,293.92,0,0,1-18.73-55.06c-2.83-11.78-5.48-23.6-8.35-35.37-4.11-16.87-7.26-33.91-7.81-51.26-.43-13.56-.13-27.16.39-40.72.65-17.2,1.78-34.33,5.13-51.34,5.24-26.66,11.63-53,21.21-78.39,10.65-28.25,23.51-55.46,40.77-80.39a9.38,9.38,0,0,0,1.41-9.13,19.68,19.68,0,0,0-1.52,1.75c-5.66,8.56-11.26,17.15-17,25.67C438.37,212.41,437.14,213,436.19,213.7Zm20.09-15.47-.88-.44a25.16,25.16,0,0,0-1.9,2.61c-7.82,14.17-16.06,28.14-23.27,42.62a308.89,308.89,0,0,0-15.88,37,444.07,444.07,0,0,0-18.6,71c-1.72,10.21-3.48,20.48-4.1,30.79q-1.61,26.43-1.69,53a237.07,237.07,0,0,0,2.23,32.61c1.41,10.24,4.08,20.31,6.43,30.4,5.09,21.79,9.47,43.78,17.46,64.76,4.14,10.88,9.07,21.47,13.64,32.2l1.17-.46c-.82-2.23-1.55-4.5-2.47-6.68-3.52-8.33-7.47-16.49-10.55-25-3.41-9.39-7.69-18.41-8.95-28.69a269.68,269.68,0,0,0-7.55-36.57c-3.67-13.7-6.5-27.48-6.92-41.65-.62-20.5-1.2-41-1.17-61.53a160.83,160.83,0,0,1,2.55-28c2.76-15.39,5.81-30.8,9.94-45.87C410,305,415.66,290,420.64,274.8c2.24-6.8,3.72-13.93,6.65-20.41,4.44-9.82,9.8-19.23,14.89-28.75,3-5.63,6.38-11.08,9.35-16.73C453.34,205.47,454.71,201.8,456.28,198.23Zm-59.58,209v33.14C399.17,437.9,399.66,410.18,396.7,407.25Zm76-98.73c-6.93,1.79-26.94,17.59-29.06,22.73ZM402,408.94c-2.29,4.77-2.37,28.17,0,30.72Zm89.52,135.88.44-1-14.4-7.8c-.17.31-.33.62-.49.93Z" transform="translate(-16.98 -62.83)"/><path d="M477.56,805.34c-12.11-.64-24.31-.53-36.3-2.1-19.27-2.51-37.12-9.85-53.79-19.63S357,761,345.13,745.72c-8.92-11.42-14.41-24.19-18.44-37.81-.54-1.82-.09-3.94-.1-5.93a31,31,0,0,1,5,2.62c11.64,8.95,24.6,15.63,37.93,21.53a355.86,355.86,0,0,0,87.28,26.17c30.14,4.89,60.37,7.81,91,3.54,17.18-2.4,33.86-6,49.75-12.93a8.81,8.81,0,0,1,2.19-.73c2-.27,3.26.44,2.31,2.56a14.92,14.92,0,0,1-3.31,5.22c-5.46,4.78-10.93,9.62-16.83,13.84a260.26,260.26,0,0,1-44.17,25.32C518.63,797.77,499,804.55,477.56,805.34Zm-67.34-52.62a31.85,31.85,0,0,0-3.48-1.69c-9.05-3.14-18.12-6.23-27.18-9.34-.87-.29-1.73-.6-2.6-.9a1.89,1.89,0,0,0,1.17,1.28q14.94,5.29,29.91,10.52a7,7,0,0,0,2.25,0,14.2,14.2,0,0,0,2.86,1.44c7.79,2,15.53,4.23,23.41,5.75,11.18,2.14,22.46,3.74,33.7,5.57l.17-.93a9.17,9.17,0,0,0-1.16-.36c-13.35-2.39-26.72-4.68-40-7.18C422.86,755.73,416.56,754.13,410.22,752.72Zm92.64,19.95a459.94,459.94,0,0,1-97.45-14.25C437.1,768.76,469.67,772.88,502.86,772.67Zm-90.22.36c27,6.94,54.24,12.1,82.32,10.45-13.78-1.27-27.62-2.06-41.34-3.79S426.3,775.29,412.64,773Zm-1.59-26.8c17.33,6.76,81.28,17.83,91.59,16A658,658,0,0,1,411.05,746.23Zm66,30.87c-28.68-3.12-57.13-7.43-84.77-16C419.81,770.4,448,776.27,477.07,777.1Zm17.43,12.07-64.22-4.87C450.22,788.16,472.28,789.58,494.5,789.17Zm-2.88-12.5v.72H527v-.72Zm-52.9,18.12-.07.73,32.25,3.42.11-1.12Zm-1.85-5.55-.13.83,29.55,4.46.15-1ZM490,767.08l0,.48h13.29l0-.48Zm21.12,27.81a6.18,6.18,0,0,0-.18-.78c-4.06,0-8.11,0-12.16,0l0,.79ZM363.82,755.18l-.38.88,13.87,6.1.35-.8Zm16.92,14.18-.39.74,14.34,5.38.3-.8ZM570.63,758.9l.26.74,12.51-4.21c-.09-.27-.18-.54-.28-.81ZM356.36,745.08l.53-.86-9.52-5.38-.43.77Zm166.06,43.17c.05.36.09.71.14,1.07l9.46-1.39-.11-.77ZM379.09,749.42l-.25.66,10.76,4.2.29-.77Z" transform="translate(-16.98 -62.83)"/><path d="M538.5,740.82c16.55.92,36.46-2.45,55.89-9.07,6.34-2.16,11.4-6.15,16.25-10.56,1.76-1.61,3.59-4.57,6.33-2.16,2.47,2.15.65,4.78-.76,6.84-4.73,6.87-11.69,11-18.92,14.63-14.2,7.06-29.55,10-45.13,12.23-37.95,5.36-75.31,1.46-112.51-6.37a339.26,339.26,0,0,1-60-18.3c-16.32-6.76-32.32-14.38-46.59-24.95-11.31-8.38-21.82-17.76-28.09-30.76-3.82-7.93-3.09-15.9,1.58-23.37,2.7-4.31,6.9-6.51,11.81-7.14a99.19,99.19,0,0,1,41,3.4c16.55,4.86,32.3,11.68,48,18.92,20.63,9.54,41.56,18.45,62.54,27.19,20.65,8.61,42.26,14.14,64.17,18.36a145.38,145.38,0,0,0,42.91,1.7c14.44-1.54,27.57-6.91,38.56-16.76,5.92-5.3,11.74-10.71,17.67-16a10.37,10.37,0,0,1,3-1.25,10.81,10.81,0,0,1-.27,3c-3.23,8.25-9.34,14.38-15.4,20.51-13.78,13.92-29.79,24.23-49,28.72-15.43,3.59-31.11,6.06-47,4.23a354.55,354.55,0,0,1-56.45-11.26c-27.63-7.85-54.38-18.18-81.35-27.88a300.56,300.56,0,0,0-46.9-12.6,25,25,0,0,0-5.93-.28,9.52,9.52,0,0,0-2.9,1.19c.47.91.69,2.19,1.43,2.68,5.11,3.4,10,7.45,15.58,9.79,37.13,15.58,75.52,27.19,114.78,36.1C480.71,735.76,518.18,740.61,538.5,740.82Zm-34.59-13.91a23.88,23.88,0,0,0,4.8.51c1.07-.08,2.08-.95,3.11-1.47-3.3-1.55-6.22-2.76-7.91,1,.14-.84.27-1.67.4-2.48-5.83-1.67-6.23-1.53-6.7,2.46Zm-132.57-48,2.86-.34c-.26-1.26-.52-2.52-.79-3.78,1-1.4,1.92-2.81,2.68-3.94-.11,1.67.13,3.93-.51,5.91-.8,2.44-.27,3.7,2.07,4.41l-2.73,1.13c.58,1,.95,2.27,1.8,2.85a15.41,15.41,0,0,0,3.89,1.34c1.26-2.34,1.45-3.9-1.39-4.41a5.93,5.93,0,0,1-1.67-1c1.35.15,2.88.72,4,.26.59-.24.44-2.26.63-3.48l.81-.21.25,5.39c-.4,1.27-1.22,2.87-.92,3.12a43,43,0,0,0,5.27,3.32c.87-3.41,1.57-6.14,2.37-9.29.34.79.65,1.18.56,1.36-2.09,3.86.85,4.42,3.41,5.21,1.51.47,3,.89,5,1.47-1.21.73-1.82.89-2,1.27-2,3.52,1.82,3.33,3.13,4.77l-3.45-.55c-.2,2.31,1.07,3.12,5.58,3.19l-2.26-2.75,7.88,2.47c.52-1.53,1-2.89,1.46-4.26l.53.14c-.28,1.52-.57,3-.89,4.72l13.35,5,1.29-2,1.71,3.52-1.76,1c.35.47.6,1.15,1.07,1.39a13.18,13.18,0,0,0,3.07,1,11.5,11.5,0,0,0,2.35.05L428.7,705l3.2-1.18c-.23,1.26-.5,2.82-.82,4.59l5.48,2c1-2.8,2-5.35,3.12-8.5.56,2.8-2.71,5.46.94,7.11l-2.45,1a47.73,47.73,0,0,0,4.16,2.5c.44.21,1.21-.27,1.83-.43-.27-.59-.38-1.39-.83-1.72a16.91,16.91,0,0,0-2.82-1.42l4.15.74,2.26-5.42c.47,2.66-2.65,4.81.23,6.84l-1.67,2.2,7,2,.47-1.32-2.16-1.32-2.45-1.5c2.71.83,5.49,1.47,8.11,2.53,3,1.24,4.18,0,4.66-2.82a6.22,6.22,0,0,1,1-1.77,4.23,4.23,0,0,1-.33,3.19c-1,1.77-.57,2.87,1.35,3.45l-3.13.55.12,1.37c2.4-.36,4.53,3.71,7.12-.12.13,2.21,5.15,5,6.95,3.86.33-.22.74-.74.69-1-.45-2.69,2.07-3.77,3-5.69-.44,1.18-.87,2.36-1.37,3.7l2.38,1.1c-1.77-.06-3.67-.29-3.26,2.48,6,2.26,6,2.26,6.71-1.12l-3.58-1.44c2.33.09,5.3,1.51,5.56-2.75l-4.52-1.7,6.42.56a4.1,4.1,0,0,1-.68,1.59c-1.54,2-1.1,3.3,1.14,4.18-2.46-.9-3.7-.12-3.65,2.71a22.23,22.23,0,0,0,3.84,1,9.33,9.33,0,0,0,2.75-.63l-.9-3.16c2.11,1.17,2.38-.62,2.92-1.86.76-1.73,1.43-3.51,2.14-5.27l.7.28-4.37,11.36c2.5,0,4.82,2.61,6.58-.56.33-.58-.72-1.92-1-2.51,3.82,1.07,3-4.07,5.87-6.18-1,2.53-1.7,4.37-2.48,6.37,4.09.45,7.7,1.07,11.31,1.1,1.05,0,2.23-1.57,3.1-2.64.29-.36-.21-1.37-.33-2l3-1.82c-.78,2.05.35,2.77,1.61,2.54-2.63-.82-3.46,1.27-3.89,4.26,1.94.1,4.33.95,5.49.1,1.7-1.23,2.52-3.68,3.66-5.52,2.21,3.1,5.47,1.65,8.19,2-.7,1.46-1.32,2.77-2,4.2,5.2,1.09,5.17,1.07,7.27-3,.33-.64,1.09-1,1.65-1.58.19.36.36,1,.58,1,4.5.26,9,.56,13.5.53.69,0,1.37-1.56,2-2.4l-.41-1c-4.59,0-9.19-.09-13.78.08-.68,0-1.33,1.23-2,1.88.92-3.88-2.85-1.39-3.5-2.42H558.5c-3.71,1-3.71,1-3.82,4,3.09-.16,6.16-.27,9.22-.5,2.18-.17,4.94.48,5.07-3.14,0-.3.53-.77.88-.84,2.53-.49,5.08-.91,7.62-1.35a10.72,10.72,0,0,1-4.63,1.74c-3,.52-3,.5-3,3.17,5-1.92,10.69-.13,14.92-3.49.79.2,1.61.7,2.25.53,12.64-3.41,23.68-9.5,32.21-19.65a17.27,17.27,0,0,0,1.84-3.73l10-9.81c-2.94,2.5-5.84,5-8.65,7.65a9.43,9.43,0,0,0-1.31,2.26c-3.13,1.86-6.38,3.55-9.38,5.62-12,8.26-25.12,13.34-39.81,13.63-16.35.33-32.67.19-48.6-4.3-14.43-4.06-29.26-7-43.26-12.21a852.82,852.82,0,0,1-83.31-35.65c-11.37-5.66-23.75-9.45-35.89-13.39-11.31-3.67-22.89-6.3-35-3.43-4.14,1-7.74,3.21-8.43,6.38,12.26-5.14,25.28-5.84,37-2-.17.09-.36.28-.52.26-.76-.09-1.52-.24-2.28-.36-8.2-1.23-16.38-2.37-24.67-.58-2.41.52-3.43,1.52-3.05,4.08,2.51-.45,4.86-1,7.24-1.25a68.58,68.58,0,0,1,7.59-.15c2.25.05,4.5.28,6.75.43a78.37,78.37,0,0,1-12.23.46c-2.74-.1-3.85,1-3.4,4,2.5-.7,5.49,1.05,7.1-1.81,3.13,4,8.43-.08,11.08,2.4L345.37,661l5.53,1.71-.12.33-5-.71c-.25,1.44-.45,2.56-.69,3.89,2.71.59,5.05,1.16,7.42,1.58,1.22.21,2.58-.09,1.45,2-1,1.76-.19,3.14,1.6,4l-2.38,2.39,5,3.13c2.62-4.46-1.33-4.22-2.76-5.62l3.7.53c.42-2.06.81-4,1.14-5.61l2.27,2.68c-.72.59-1.8,1.07-2,1.79-.15.55.68,1.72,1.35,2.07a44.79,44.79,0,0,0,5.44,1.88l-1.23-4.87,2.05-1.4c-.29,2.75,2.12,3,4,3.79-1.46-.1-3.22-1.94-4.26.47s1.2,2.79,2.71,3.51a6.71,6.71,0,0,1,.8.55l-3.6-.63c-.19,1.28-.34,2.32-.52,3.6l5.64,1.93C374.67,681.27,373.51,679.92,371.34,678.93Zm27.2,41.74c30,9.05,60.51,16.16,91.7,19.94a7.5,7.5,0,0,0-3.05-1.1c-17-3-34.23-4.71-50.73-10.5-22.46-7.88-45.25-14.81-67.78-22.51-9-3-17.72-6.78-26.34-10.7-11.2-5.11-18.77-14.45-25.77-24.08-4.23-5.82-6.47-12.7-2.35-19.5,2-3.29,5.53-5.63,8.06-8.11-6.85-1-14.93,4.34-16.09,12.43-.7,4.9.11,10.24,1.34,15.11.85,3.36,3.23,6.53,5.5,9.31,8.08,9.89,17.16,18.57,28.77,24.45,11.78,6,22.86,13.43,34.95,18.59,14.15,6,29,10.42,43.64,15.3,4.16,1.39,8.57,2,12.86,3l.21-.83c-18.23-4.71-36.32-9.84-53.53-17.64,17.4,6.08,35,11.49,53.26,14.17C415.57,732.66,398,727.32,381,720a6.13,6.13,0,0,1,2.85.42c15.49,6,31.57,9.79,47.64,13.73,20.6,5,41.29,9.24,62.49,10.93,19.75,1.58,39.47,1.86,59.17-.35,7.33-.82,14.57-2.57,21.85-3.9C514.24,750.9,455.57,743.12,398.54,720.67Zm132,28.55L484,747.05C500.08,751.38,515.41,750.61,530.5,749.22Zm-43.94,2.72.24-1.67-40-5.9-.18,1.17Zm-150.39-91h8.9c.12-1.12.23-2.23.33-3.32C336.9,656.3,336.57,656.41,336.17,660.91Zm8.41,1.58c-6.86-1.73-8.92-1-8.42,2.84l7.75.53C344.17,664.58,344.35,663.64,344.58,662.49Zm-.82,4.75a60.46,60.46,0,0,0-6.36-.61c-.68,0-1.37.93-2.06,1.44.6.72,1.09,1.92,1.8,2.06a44.32,44.32,0,0,0,6.05.4ZM466,745.18l.31-1.16-24.82-4.74-.23,1.16ZM344.49,670.8l7.67,1.73.48-3.87-7.29-1.49C345,668.53,344.8,669.47,344.49,670.8Zm-.16,4.45c1.52.38,2.67.69,3.84,1s2.27.47,3.4.71c.75-4.07.46-4.27-6.73-4.78C344.69,673,344.54,674,344.33,675.25Zm177.3,49.07c5.39,1.8,6.62,1.34,6.94-2.6C522.46,720.23,522.32,720.28,521.63,724.32ZM395,691.69c1.53-3.56-.37-5.36-5.34-5.06C389,690.31,389.44,690.73,395,691.69ZM596.5,717.6l-.51-.93c-11.36,2.93-11.36,2.93-11.53,6.17ZM343.23,672.07c-7.32-1.41-7.89-1.2-7.14,2.43l6.72.64C343,674.09,343.08,673.17,343.23,672.07Zm-14.31-11c6.15.76,6.95.26,6-3.74C329.24,657.19,328.9,657.4,328.92,661.07Zm215.36,62c-6.67-1.08-6.67-1.08-7.14,2.5C541.93,727,543.33,726.59,544.28,723.11ZM366,681.17c.8-3.58-.07-4.35-5.34-5C359.66,679.84,359.83,680,366,681.17Zm186.16,42.08c-6.41-.87-6.56-.81-7.08,3C547.54,725.34,551.13,727.86,552.17,723.25Zm-224-57.47c6.58-.17,6.64-.2,6-3.91C332.16,663.13,328.12,660.54,328.18,665.78Zm.67,4.87,4.94-.57v-3.21C328.05,666.94,327.81,667.12,328.85,670.65Zm-.34-17.21c-6,1-6,1-5.72,4.35C327.68,657.57,328.42,657,328.51,653.44Zm-1,4.77a31.4,31.4,0,0,0-5.1,2.06c-.43.25-.07,1.82-.07,3.07C325,662.4,328.13,662.8,327.5,658.21ZM344,677.31c1.71,4,5,2.82,7.3,4.16C351.54,678.33,351.37,678.23,344,677.31ZM570.49,745c-.1-.3-.21-.59-.32-.89l-17.5,3,.14.82Zm-58.24-17.64c5.87,1.37,6.13,1.31,6.77-1.84C516.81,726.46,513.72,722.53,512.25,727.37Zm14.66-.72c-6.2-1.35-6.58-1.52-6.7,1.78C522.37,727.92,525.13,730.47,526.91,726.65ZM326.85,663.41c-5.05,1-5.2,1.16-3.87,4.45C327,666.62,327,666.62,326.85,663.41Zm256,57.05c-2.19.87-5.44-.58-6.48,2.8C578.93,723.22,581.94,724.14,582.84,720.46ZM315.25,656.23l.77.84c6.27-3.12,6.27-3.12,6.25-6.86Zm27.43,23c-.32-2.34-2.2-3.31-5.31-2.92-.51.07-1,.57-1.45.88.43.49.79,1.32,1.3,1.42C339,678.93,340.81,679,342.68,679.21Zm216.77,44c-5.47-.83-6.25-.47-5.85,2.77C555.59,725.2,558.88,727.33,559.45,723.22Zm-24.16,5.58c.13.29.26.59.38.89a35.63,35.63,0,0,0,5.07-.09c.51-.08.86-1.24,1.28-1.9a24,24,0,0,0-4.71-.61C536.61,727.12,536,728.19,535.29,728.8ZM315.16,662c6.08-2.76,6.09-2.77,5.31-6C318,657.32,315.58,658.49,315.16,662Zm259.37,60c-5.42.13-5.42.13-6,2.59C573.18,725,574.31,724.46,574.53,721.94Zm-32.1,29.36-.06-.75-16.5,1.16a15.19,15.19,0,0,0,5.56.55C535.1,752,538.76,751.63,542.43,751.3ZM353.49,679.19c-1,4,2.25,3,3.74,3.82.31.17,1.44-.4,1.45-.65,0-.62-.24-1.6-.68-1.8A33.1,33.1,0,0,0,353.49,679.19Zm-24.71-6.93c-.55,3.11,1.35,2.48,3.15,2.37,2.23-.14,2.56-1.11,1.7-3-1.25.09-2.45.16-3.63.29A5.76,5.76,0,0,0,328.78,672.26Zm238.41,50.87c-5.06-.88-5.93-.55-6.23,2.39C563.19,725.16,565.91,726.42,567.19,723.13Zm-202-38.07.83-.65c-.52-.69-.91-1.73-1.6-2a19.43,19.43,0,0,0-4-.68c.23.73.25,1.88.72,2.12A22.91,22.91,0,0,0,365.16,685.06Zm29.46,10c.52-2.37.54-2.42-3.34-3.57-.69-.2-1.58.26-2.38.41.47.59.83,1.44,1.44,1.73A39.77,39.77,0,0,0,394.62,695Zm-14.35-4.79c.07-2.76-1.08-3.49-5.8-3.86C375.34,689.56,378.19,689,380.27,690.23Zm1.34-.94-.13.94c1.61.64,3.2,1.34,4.85,1.85.29.09.84-.64,1.27-1-1.52-.86-3-1.78-4.57-2.52C382.73,688.42,382.09,689,381.61,689.29Zm146.07,39.4c6.13,1.2,6.38,1.12,6.06-1.89C531.85,727.62,529,724.86,527.68,728.69ZM321.16,662.26l-1.2-.94c-1.37,1.36-4.86,1.3-2.75,5.55C318.72,665.12,319.94,663.69,321.16,662.26Zm8.38,14.55c.61,2.29.61,2.29,4.81,1.38C333.65,675.67,333.59,675.65,329.54,676.81Zm213.94,52.44c4.36,1.1,5.85.72,6.43-1.72C547.75,728,545.09,726,543.48,729.25Zm-134.1-31-.83,1.48,5.79,2.68.65-1.33Zm-42.19-14.63c.95,3,3.34,2.7,4.95,3.42.24.11.79-.49,1.19-.77-1.1-.71-2.15-1.49-3.31-2.09A13.42,13.42,0,0,0,367.19,683.62ZM453.61,714l-.26,1.58c1.41.48,2.8,1,4.24,1.42a1.85,1.85,0,0,0,1.4-.5,1.3,1.3,0,0,0-.1-1.12C457.15,714.84,455.37,714.42,453.61,714Zm97.85,15.69c2.44-.43,4.88.92,6.41-1.91C553.48,727,552.93,727.13,551.46,729.67Zm13.93-1.48-.23-1c-4.42-.6-5-.4-5.51,2.23Zm-143.53-23c-.28-2.87-3.32-4.09-6.24-2.51Zm-95-32.24c-4,1.1-4.09,1.3-2.31,4.22C325.71,675.93,328.66,675.84,326.89,673Zm-3.31-.47c1.85-1,4.23-1.3,2.89-4.17C322.47,669.26,322.38,669.37,323.58,672.5Z" transform="translate(-16.98 -62.83)"/><path d="M366.65,565.36a35.5,35.5,0,0,1-3-3.69c-11.44-20-21.07-40.78-26.18-63.37-4.77-21.07-7.54-42.37-5.8-64.06.42-5.16.51-10.37,1.15-15.5.32-2.53,1.66-4.91,2.33-7.41.56-2.09.8-4.27,1.22-6.4a31.84,31.84,0,0,1,1.42-6.06c.42-1,2.13-2.27,2.85-2.06a4.2,4.2,0,0,1,2.53,2.87c.37,4.05.33,8.15.35,12.23.08,20.1.71,40.14,4.55,60,2.57,13.32,4.13,26.84,6.95,40.1,2.35,11.09,6,21.89,8.81,32.9,1.47,5.85,2.24,11.87,3.29,17.82A11.77,11.77,0,0,1,366.65,565.36Zm-13-43.85C347.57,482,339,443,340.12,402.82l-1.13,0q-.94,11-1.9,22.06l-.56,0V419c-8.28,23.86,4.11,103.73,18.37,120.7L346,513.08l.7-.23,14.09,36.3,1-.34a285.29,285.29,0,0,1-15.34-55.16l.83-.22Q350.43,507.47,353.66,521.51Z" transform="translate(-16.98 -62.83)"/><path d="M500.85,516.35c-4.12-1.25-8.17-2.29-12.09-3.72-12.84-4.68-21-14-26.33-26.33-4.3-9.93-4.8-20.33-4.94-30.83-.06-4.85.28-9.71.61-14.56.07-1.05.9-2.05,1.38-3.08,1.07.62,2.83,1,3.09,1.88a70.18,70.18,0,0,1,3,12.68c1.27,11.81,4.4,23.15,10.32,33.27,5.77,9.86,14.48,17.44,23.35,24.63a20.1,20.1,0,0,1,3,2.54,2.9,2.9,0,0,1,.44,2.36C502.56,515.7,501.55,516,500.85,516.35ZM473,495.67l.4-.41L489,508.88l.42-.51L476.12,495l.83-.8L487.23,504l1-.73c-16.09-12.39-21.21-30.24-25-49.08l-.52,1.47-.49,0q-.76-6.06-1.52-12.13c-1.68,11.23.45,22,2.49,32.86-.92-3.3-1.85-6.59-2.94-10.49-1.17,14.48,12.08,37.59,23.4,41.34Z" transform="translate(-16.98 -62.83)"/><path d="M623.08,721.65c-1.22-.67-3.25-1.14-3.45-2-.34-1.47,0-4,1-4.71a129.21,129.21,0,0,1,15.12-10c3.55-1.94,9.62,2.13,10.59,7,1.19,5.91.54,11.56-3.68,16.45-8.63,10-19.83,15.59-32.21,19.27a4,4,0,0,1-1.6.36c-1.21-.24-2.39-.67-3.58-1,.5-1.21.67-2.83,1.56-3.57,3.57-3,7.56-5.39,11-8.46a74.89,74.89,0,0,0,8.47-9.23,4.9,4.9,0,0,0,.37-4c-.2-.62-2-.7-3.13-1Zm8-3.8a11.23,11.23,0,0,0-10.24.32c1,.42,1.17.61,1.33.57,2.56-.69,5.14-.91,6.8,1.59s.36,4.8-1.06,7a14.37,14.37,0,0,0-.72,1.41l1.09.36-10.11,9.3.79.89,16.4-14.58.42.37-10.92,12.23a38,38,0,0,0,6.65-4.62c2-1.74,3.76-3.74,5.62-5.63l.62.58-7.17,8.22a38.1,38.1,0,0,0,8-6c3.56-3.61,6-7.88,6.25-13.15a9.26,9.26,0,0,0-4.67-8.5c-2.55-1.3-4.82-.94-7,1.19l2.9.58c-5.28-1.07-7.82,3.33-11.24,4.88Z" transform="translate(-16.98 -62.83)"/><path d="M366.67,286.07c4.92-24.91,12.07-49,25.21-71C380.36,237.61,373,261.64,366.67,286.07Z" transform="translate(-16.98 -62.83)"/><path d="M368,419.08q3.14,22.21,6.26,44.42l-.79.11q-3.07-22.17-6.14-44.34Z" transform="translate(-16.98 -62.83)"/><path d="M360.29,357.58v36.86h-.52V357.62Z" transform="translate(-16.98 -62.83)"/><path d="M384.86,422.86V391h.42v31.85Z" transform="translate(-16.98 -62.83)"/><path d="M402.58,551.35l-7.45-22,.89-.3,7.26,22Z" transform="translate(-16.98 -62.83)"/><path d="M432,209.56l-8.52,17.31-1.06-.57q4.83-8.33,9.65-16.67Z" transform="translate(-16.98 -62.83)"/><path d="M422.67,242.63q3.16-7.5,6.34-15l.79.22a3.32,3.32,0,0,1,0,1.34q-2.88,6.1-5.88,12.17c-.25.49-.85.81-1.29,1.21Z" transform="translate(-16.98 -62.83)"/><path d="M364.75,318.68q1.85-9.68,3.68-19.35l.67.11c-.78,4.2-1.49,8.42-2.39,12.6-.49,2.23-1.32,4.39-2,6.58Z" transform="translate(-16.98 -62.83)"/><path d="M364.71,318.62c-.38,4.22-.73,8.44-1.17,12.66A10,10,0,0,1,362,335.9q1.38-8.61,2.75-17.21Z" transform="translate(-16.98 -62.83)"/><path d="M360.93,408.79l1.6,16.57-.77.07q-.81-8.35-1.63-16.72Z" transform="translate(-16.98 -62.83)"/><path d="M432.1,209.63l6.15-11.4,1.25.77L432,209.56Z" transform="translate(-16.98 -62.83)"/><path d="M388.29,474.58q1.31,7.05,2.6,14.1l-.56.12-2.76-13.86Z" transform="translate(-16.98 -62.83)"/><path d="M422.6,242.56c-.43,1.41-.76,2.87-1.31,4.23a37.62,37.62,0,0,1-4.36,8.45q2.86-6.3,5.74-12.61Z" transform="translate(-16.98 -62.83)"/><path d="M404.89,541.69l-3.47-13.2.81-.21,3.24,13.2Z" transform="translate(-16.98 -62.83)"/><path d="M393.41,327.34q1.45-5.64,2.9-11.29l.59.15q-1.36,5.66-2.74,11.33Z" transform="translate(-16.98 -62.83)"/><path d="M436.19,213.7q-1.51,4.53-3,9.05l-1.35-.56q2.21-4.23,4.4-8.48Z" transform="translate(-16.98 -62.83)"/><path d="M402.78,295.46q-1.69,5.49-3.41,11l-.56-.17q1.68-5.49,3.37-11Z" transform="translate(-16.98 -62.83)"/><path d="M385.08,438.11l-.51-11.64.71,0V438.1Z" transform="translate(-16.98 -62.83)"/><path d="M384.4,493.77q-1-5.28-2-10.55l.72-.14,2,10.69Z" transform="translate(-16.98 -62.83)"/><path d="M441.52,422.08a116.41,116.41,0,0,0,7.11,67.66C437.12,468.18,436.53,445.45,441.52,422.08Z" transform="translate(-16.98 -62.83)"/><path d="M461.67,389.26c-10.35,19.19-18.43,39-18.86,61.11C441.91,427.81,449.55,407.82,461.67,389.26Z" transform="translate(-16.98 -62.83)"/><path d="M417.38,453.14c-2.85-15.6-4.38-31.24-1-47.24-.32,8.18-1,16.08-.82,24S416.75,445.38,417.38,453.14Z" transform="translate(-16.98 -62.83)"/><path d="M484.19,363.12a11.4,11.4,0,0,1-1.42,2.63c-6.45,6.71-13,13.36-19.48,20.06,5.82-8.6,12.42-16.47,21-22.59Z" transform="translate(-16.98 -62.83)"/><path d="M469,323.83,452.47,338l-.55-.63,16.42-14.23Z" transform="translate(-16.98 -62.83)"/><path d="M441.54,340.71l10-9.73.19.18-9.61,10Z" transform="translate(-16.98 -62.83)"/><path d="M478.16,334l8.33-5.74.47.7-8.39,5.64Z" transform="translate(-16.98 -62.83)"/><path d="M607,706.73l-11.71,5.84-.36-.72L606.62,706Z" transform="translate(-16.98 -62.83)"/><path d="M328.88,694.54,320,686.37l-.06,0,8.56,8.5Z" transform="translate(-16.98 -62.83)"/><path d="M328.42,689.4l-7.41-7,0,.07,7.27,7.17Z" transform="translate(-16.98 -62.83)"/><path d="M341.81,494.65,338.59,478l.64-.13q1.63,8.34,3.25,16.69Z" transform="translate(-16.98 -62.83)"/><path d="M337.22,448.54V434.86h.34v13.73Z" transform="translate(-16.98 -62.83)"/><path d="M120.45,216.28c-2.1,2.93-4.13,5.91-6.32,8.76-3.08,4-6.28,7.9-9.54,12,.7.23,1,.41,1.08.35,6.33-7.55,13-14.83,18.87-22.74,6.92-9.37,13.16-19.24,19.58-29a32.46,32.46,0,0,0,2.42-5.66c2.36-5.75,5-11.41,7-17.29,3.21-9.33,6.29-18.74,8.8-28.27.82-3.11.1-6.81-.59-10.1-2.62-12.63.48-24,8.14-33.88,6.41-8.3,13.67-16,20.65-23.81a36,36,0,0,1,4.73-3.81l.9.54a18.47,18.47,0,0,1-.19,2.89q-3.48,15.15-7,30.29c-2.2,9.44-4.33,18.91-12.18,25.68a10.76,10.76,0,0,0-1.12,1.91c13.57-7.71,25.44-16.89,40.4-21.26,0,1.55.26,2.55-.05,3.32-2.61,6.54-5.06,13.15-8.11,19.48-2,4.22-5.22,7.88-7.41,12a21.72,21.72,0,0,1-11.72,10.19c-5.35,2.16-10.71,4.32-16,6.59-8,3.41-13.44,9.39-17.31,17-.89,1.77-2,3.44-3.3,5.73a16.4,16.4,0,0,0,2.65-.81c13.05-7.17,27.18-10.54,41.87-12,1.63-.16,3.24-.67,4.88-.8.83-.06,2.26.17,2.45.64a3.77,3.77,0,0,1-.26,3c-2.82,4.53-5.78,9-8.75,13.44-8.69,13-19.77,22.94-35.57,26.08-6.33,1.26-12.88,1.39-19.34,2-1.41.13-2.83.07-4.25.15-3.25.16-5.32,1.38-7,4.64-5.16,10-13.47,17.58-21.42,25.3a206.52,206.52,0,0,0-32.76,40.67C70,287,65.39,294.57,60.81,302.14A60,60,0,0,0,53,323.23a2.92,2.92,0,0,0,.78,2.35,16.19,16.19,0,0,0,1.83-3.68c2.7-13,9.12-24.1,16.8-34.73,4.28-5.91,7.42-12.63,11.68-18.55,5.37-7.44,10.66-15.19,17.3-21.39,5.77-5.38,10.58-11.56,16.27-16.91S130.64,222.73,138,222c12.77-1.34,25.66-1.58,38.5-2.27a3.44,3.44,0,0,1,1.4.11c1.17.41,2.31.93,3.46,1.4a12.12,12.12,0,0,1-1.49,3c-6.89,7.46-13.57,15.12-20.84,22.19-13.47,13.09-29.48,17.7-47.49,11.51-8.29-2.85-14-.12-19,5.7s-9.5,11.86-14.22,17.81l1,1.15a22.15,22.15,0,0,0,3.3-1.87C97,268.93,112.62,267,129.45,275c4,1.92,8.15,3.73,12.19,5.66a47.66,47.66,0,0,1,4.17,2.64c-1.81,1.35-3.07,2.38-4.41,3.28q-7,4.72-14.12,9.38c-8.07,5.27-16.55,10.06-26.43,9.74-5.64-.19-11.21-2.42-16.8-3.79-2.17-.54-4.25-1.55-6.44-1.8-5.36-.59-10,.84-12,6.38-2.56,6.94-4.88,14-7.11,21-.69,2.18-1.15,4.29-4,3.77-2.7-.48-4.4-2.44-3.92-5,1-5.41,1.86-11,4-16,2.75-6.48,6.89-12.34,10-18.67a149.79,149.79,0,0,0,7-16.54,10.16,10.16,0,0,0-1.68-9.42c-1.84-2.59-3.5-5.32-5.36-7.91-6.71-9.35-6.6-19.8-5.29-30.57,1.46-11.92,6.17-22.68,11.27-33.33.36-.75,1.25-1.73,1.89-1.73s1.42,1,1.88,1.75c2.19,3.48,4.18,7.09,6.46,10.51,9.87,14.77,11.87,30.05,3.79,46.37-3.06,6.18-5.25,12.78-8.17,20,1.12-.6,1.59-.69,1.77-1,6.12-9.79,12.27-19.56,18.28-29.43,3.42-5.63,3.21-11.36,0-17.11a49.67,49.67,0,0,1-6.61-27.5c.85-15.26,6.09-29.18,13.92-42.2,1.61-2.67,3-2.15,4.31.22,2.93,5.2,5.88,10.38,9.22,16.26,2-18.8,11.28-33.93,21.36-49.66a26.23,26.23,0,0,1,2.35,4.09c4.58,13.63,7.29,27.55,6.71,42-.33,8-2.59,15.09-8.31,20.81-7.28,7.26-10.69,16.82-15.51,25.56-.71,1.28-2.09,2.2-3.15,3.28q2.41-9.66,4.84-19.32c-.85-.32-.75-.48-.69-.46.5.1,1,.24,1.5.36.89-5.45.37-7.24-2.59-9.83-.34,5.23-.21,10.84-1.18,16.24s-3,10.55-4.75,16.29Zm22.89-69.86c-.26-1.67-.51-3.35-.77-5l-.84-.1-5.16,10,.61.36,6.25-5.37c-2,3.95-6.86,6.09-7.38,12.2,2.79-3,5.13-5.12,6.91-7.64C143.71,149.82,143.25,147.93,143.34,146.42Zm-6.71,16.3c2-2.06,4.12-4.06,6-6.22a17.12,17.12,0,0,0,1.8-3.26,27,27,0,0,0-7.84,5.83c-.9,1-.77,2.92-1.1,4.43-.71,1.7-1.43,3.41-2.14,5.12l-.9-1.24,12-10.17-.27-.31ZM106.39,274.9,97,286.32l.61.57,15.12-13.81L106.27,275c-1.21.05-2.79-.38-3.57.23a98.81,98.81,0,0,0-8.94,7.92c-1.13,1.13-1.64,2.86-2.43,4.32l.68.44ZM143.05,165q1.08-2.17,2.18-4.33c-8.74,5.78-12.29,10.37-11.51,13l9.44-8.82c-2.93,3.24-5.76,6.59-8.84,9.68-1.61,1.63-4.19,7.89-3.56,10.05.05.16.81.12,1.24.17l-1.44,3.82c2.81-2.64,4.95-5.61,7.54-8.12,3.43-3.3,5.21-5.88,5.38-9.46-2.42,2.56-4.78,4.84-6.88,7.33-1.72,2.05-3.15,4.36-4.7,6.55a12.42,12.42,0,0,1,4.89-8.87,37.44,37.44,0,0,0,6.48-6.35C144.29,168.45,146.18,166.42,143.05,165Zm59.86-39.84a60.27,60.27,0,0,1-6.23,3.45c-4.69,1.92-9.3,3.84-12.43,8.69,4.2-1.34,7.88-3,11.72-3.62,4.45-.75,6-4.08,7.94-7.25.07-.12-.72-.77-1.11-1.17,6.28-3,5.64-10.27,9.73-14.61l-.81-.71-10.42,8.78.68,1,5.71-3.25.36.64-12.53,8,1.83.55-3.18,2.07.33.61ZM83.16,285.51l-3.22,5.81.66.69,13.47-14.47.6.56-7.89,9.25.89.77L100.13,275C92.47,276.13,87,280.93,81,284.61c-.4.25-.47,1-.69,1.56l-6,5.68.85.92Zm87-176.45c-.34-4.43-.68-8.86-1-12.82-5.15,7.25-7.58,24.33-3.72,29.16.31-7.24-1.14-14.46,1.88-21.14v18.11l1,0c.21-3.62.36-7.24.69-10.84a8.58,8.58,0,0,1,1.22-2.59l1.43.37c.76-3,1.73-6.07,2.22-9.17a44.42,44.42,0,0,0,.07-6.83l.84-.08c.24,2.14.47,4.27.7,6.41l1.24,0c.26-3,.51-6,.83-9.9.29,2,.47,3.13.64,4.3l.79.12,1.53-6.83.62,1.26,9.5-17.89a1.62,1.62,0,0,0-1.52.59c-5.2,6.52-10.33,13.1-15.61,19.56-2.45,3-2.76,6.29-2.6,10C171.08,103.54,170.47,106.31,170.19,109.06Zm-3,66.63c-3.89,1.48-8.37,2.2-11.52,4.63-4.89,3.76-8.94,8.64-13.21,13.17-1.86,2-3.39,4.26-5.07,6.4l.59.47,8.91-8.69.38.39-3.48,5.87c5.77-2.72,5.62-9.21,9.31-14.14l-2.58,7.76,1,.41c3.38-3.71,3.19-10.15,9.36-12.64-2.25,4.13-4.17,7.63-6.08,11.14l1,.66c1.07-1.39,2.17-2.76,3.21-4.17,2.77-3.77,5.52-7.57,8.27-11.35l-6.31,11.46,1.37.85q4.53-6.71,9-13.42l.66.42q-2.53,5.07-5.05,10.15l.86.55,9.06-13.42,1,.6q-2.7,4.65-5.41,9.28l.7.51,9.56-12.12.56.52-6.69,9.43.73.53,12.17-12.87C179.11,169.71,171.35,171,167.19,175.69Zm-40,10.3c2.23-1.09,1.27-2.6.6-4.14-2-4.58-4-9.18-5.94-13.78l.67-.29q3,6.76,6.08,13.54c1.28-8.87-6-15.78-4.58-24.54,1.76,5.28,3.48,10.47,5.21,15.65L131,172c-.49-2.13-.66-4.41-1.55-6.36-2.09-4.57-3.55-9.21-3.14-14.29q2.23,7.31,4.46,14.62l.93-.27q-1.53-10.66-3.07-21.33l-.79-.27c-.49,2.44-1,4.89-1.46,7.33-.52.11-1.4.1-1.49.36-1.08,3.08-2.15,6.17-3,9.32a48.92,48.92,0,0,0-1.38,7.1c-.28,2.4-1,5.13-.18,7.18,2,5.11,4.85,9.92,7.35,14.85l1.37-.65c-.58-1.2-1.16-2.4-1.73-3.6Zm-43,48.86.08.09c2.74-4.29,3-5.79,2-9l-7.1,11.82-1-.58c2.16-5.67,8.51-9.72,7.17-17.46l-6.52,11.5-1.26-.67a94.84,94.84,0,0,1,5.12-9.15c1.95-2.8,2.14-5.22-.06-7.93-1.68,3.64-3.34,7.21-5,10.79l-.67-.27L81,208l-1.31-.34q-1.64,3.8-3.26,7.59l-.32-.1,2.28-9.65-1-.26-1.33,2.21-.36-.14c.3-1.37.61-2.73,1.14-5l-2.11,1.48-1.7-2.94a101.6,101.6,0,0,0,.29,16c.88,9.71,3,19.34,1.65,29.17l-2,14.56-8.79-10.61c2.65,7.48,10.32,12.19,9.9,21.15a9.2,9.2,0,0,0,1.07-4.28c-.63-7.7,3-13.78,6.9-19.95,1.89-3,2.68-6.67,3.9-10.06C86.54,235.19,85.6,234.77,84.2,234.85ZM185,177.61l-.09-.09,3.34,2.12c-7.33.22-42.56,17.63-45.22,22.81,5.51-.15,10.71,3,17,.38l-13.57-1.74c6.17-.76,12.25,2.43,18.38-.5,1.54-.73,3.4-.79,5-1.42,7.52-3,12.65-9,17.77-14.76,3.8-4.32,6.92-9.24,10.18-14,.42-.6-.11-2.72-.28-2.73-2-.11-4.55-.7-5.83.29-3.6,2.8-6.67,6.28-10,9.5l.6.73Zm-67.68,31c3.57-4.57,3.74-9.77,3.22-15.27l-9.62,13-1-.77c1.16-1.6,2.3-3.2,3.47-4.78,1.89-2.55,3.94-5,5.62-7.67,1.07-1.69,1.79-3.76-.82-5.07l.09.09c.23-1.91,1.12-4,.56-5.69-1.4-4.1-3.46-8-5.43-12.32l-2.88,7.58c0-4.9,4.78-9.68-.62-14.64l-2,4.26c.88-7.23.88-7.23-1.8-8.32-3.48,4.9,1.87,9.65.62,14.51l-.92.13c-.92-4.13-1.83-8.27-2.78-12.54-1.29,3.07-2.67,6.08-3.81,9.18a15.51,15.51,0,0,0-.41,3.77c-.62.81-1.55,1.52-1.82,2.43A99.82,99.82,0,0,0,94.36,187c-1.68,9.61-2.29,19.2,1.89,28.43,1.46,3.23,3,6.4,4.62,9.8,2.63-2.95,2.44-5.13-.11-7.46-3-2.74-2.88-2.87-2.82-7.2l4.8,6.08,1-.65c-3.1-5.65-9-10-8.38-17.08l9,16,1.42-.68c-.85-2-1.37-4.32-2.61-6.08-3.12-4.43-5.93-8.93-6.8-14.4l7.12,11.62,1.5-.89c-2.29-5.69-8.11-9.63-9.4-16.72l9.77,13.28c.15-7.82-6.55-11.17-8.15-17.8l6.22,8,.91-.62-5.92-10.83.52-.29,5,5.7,1.15-.83-6.37-10.55,6.58,6.76c1.68-4.42-3.12-5.81-3.78-9.15,3.86,2.92,6,6,5.61,11.12-.58,7,.06,14.14-.21,21.21-.22,5.63-.39,11.39-1.73,16.81-2,8.14-3.29,16.69-8.73,23.63a10.58,10.58,0,0,0-.82,2.11c7.79-6.16,8-16.11,14.65-22.65l-3.42.18a27.92,27.92,0,0,0,10.54-15.45Zm49,24.65c-6.49-1.34-63,16.17-65.4,20.48,4.94-2,9.51-1,14.11.47s9.35,2.73,14,4.08l.32-1-16.13-5.94.39-1.08c4.82,1.76,9.6,3.66,14.5,5.22,1.9.6,4.29,1.11,6,.5,5.85-2.06,11.51-4.64,17.24-7l-.37-.8-16.17-3.57c.09-.36.17-.72.25-1.08,2.25.58,4.49,1.23,6.76,1.71s4.86,1,7.32,1.29c2.18.24,4.62.83,6-1.68l-15.3-2.3.14-.95c4.26.53,8.52,1.08,12.78,1.58,4.89.57,7.06-.79,8.94-5.65l-6.14-.56C159.92,235.9,164.36,238,166.36,233.22Zm-29.28,51.37c-5.75-2.2-61,7.7-64.08,11.52,8.55-3.7,15.1,2.49,22.22,4.7,6.85,2.13,12.09,1.13,17.73-1.85l-9.68-6.68c.2-.31.4-.62.61-.93,4.63,1.62,7.46,7.87,14.14,5.94L109.28,292l.54-.9c2.58,1.37,5.16,2.72,7.73,4.1s4.07.92,5.65-1.45l-10.63-3.93.37-1c3.44,1.13,6.85,2.36,10.33,3.32a5.23,5.23,0,0,0,3.54-.27c2.75-1.53,5.31-3.39,8-5.14l-1.17-1.25ZM63.22,233.21,72,244.82c1.33-4.06-1.83-5.65-3.37-8.07s-3.09-4.82-4.63-7.22l.42-.23,7.79,10.2,1.41-.95-9.2-15.38,1-.58,8,12.63c-.91-8.54-2.52-15.77-6.53-22.41l1-.35q1.52,2.52,3,5l1.08-.56-3.3-8.08L70.16,211l1-.72c-.68-2-1.37-3.95-2.18-6.28a8.62,8.62,0,0,0-.84,1.28c-3.49,9.08-4.95,18.61-6.22,28.17-1.11,8.36,3.85,19.39,10.62,23.57-.17-6.49-6.93-9.09-8.77-15.5l7.77,8.92a4.12,4.12,0,0,0,0-3.4,25.6,25.6,0,0,0-3.64-4.29A16.37,16.37,0,0,1,63.22,233.21Zm54.22,10.58.78.51,11.24-15.6.58.44-7.28,10.72,1.14.86,14.25-15.28c-12.31,1.31-28.22,12.19-30,20.72l6.34-5.59.22.29-2.43,3.86,1,.72,7.7-9.29.55.3ZM186,101l-1.09-.89c-5.78,5-11.74,10.09-14.52,17.34-3.39,8.86-5.8,18.11-8.44,27.25-1.39,4.82-2.36,9.77-3.52,14.66l1,.31c1.36-3.81,2.87-7.57,4-11.44,1.53-5.15,2.62-10.44,4.19-15.58,2.3-7.55,5.37-14.64,12.41-19.27,1.44-1,2.19-3,3.26-4.46l-.78-.58-9,8-.41-.4Q179.57,108.44,186,101ZM138.56,236.74c7-2,9.75-8.75,15.91-12.53-9-1.66-13.49-.2-18.64,5.59-2.66,3-5.34,6-8,9,.33.34.66.67,1,1l5.78-5c-.62,1.33-1.16,2.51-2.11,4.54,7.5-3,9.84-10.57,16.18-13.48Zm-3.74-84.48.9.05q1.35-13,2.68-25.95l-1.51-.16c-.2,2.28-.41,4.56-.6,6.71l-1.2-1.68c-7.26,9.1-5,19-2.84,29a2.64,2.64,0,0,0,.63-1.61c0-.58-.23-1.32,0-1.74,1.32-2,1.18-2,.92-3.53-.35-2.05-.39-4.16-.55-6.24l1.1-.07C134.53,148.75,134.68,150.51,134.82,152.26Zm59.57-35C183.55,122.63,178.15,129,179,139l8.11-14.23.5.26q-1.54,4-3.1,8l.62.41,18.42-21.15c-7.65,1-8.75,8.16-13.68,11.24ZM144.67,235.05l.44.67c3.11-1.16,6.48-1.9,9.27-3.6s5.27-4.49,7.88-6.79l.91.92-6.29,4.88.8,1,16.15-5.31-2.61-1.3,3.34-1.07-.21-1.12c-6.38.37-13.17-.48-19,1.51C151.13,226.32,148.18,231.52,144.67,235.05Zm-30.95,48.53.56.86,12-7.25c-10-6.17-17.25-1.77-23.88,8.5L117.73,276l.48.8-10.08,6.8.65,1L121.4,277l.37.61Zm81.81-143.14c-11,1.75-19.83,7.74-28.63,13.89C176,148.89,186.88,146.89,195.53,140.44Zm-22.21,6.82c1.28-.63,2.54-1.29,3.84-1.87,5.46-2.45,10.84-5.09,16.42-7.21,3.32-1.27,3.46-.9,4.25-4.5C189.53,138.3,179.68,139.32,173.32,147.26ZM180,126.47c-4.94.87-10.83,12.34-9.17,19,1.58-4.69,3-8.78,4.35-12.88l.9.29q-1.51,4.94-3,9.86C178,138.37,177.4,131.77,180,126.47Zm-3.89-20.1c4-4.93,11.63-7.37,10.91-15.66A25.89,25.89,0,0,0,176.07,106.37ZM138.27,281.9c-7.32-5.12-11.41-4.85-17,1.12l8.11-2.1.15.54-3.27,1.09.16.79Zm27.39-135,9-19.46C169,132.39,166.43,139.15,165.66,146.85ZM140.57,134l-3.4,11.68C142.24,140.32,142.74,138.25,140.57,134Zm49-51.3-1.3-.91q-3.3,5.31-6.59,10.62l1.19.77Q186.23,88,189.58,82.73ZM134.39,206.17l13.61-2C142.39,202.32,138.33,203.88,134.39,206.17Z" transform="translate(-16.98 -62.83)"/><path d="M118.18,188c-1.22,2.41-2.29,4.92-3.73,7.18a36.6,36.6,0,0,1-3.92,4.46l-1.08-.9,8.83-10.64Z" transform="translate(-16.98 -62.83)"/><path d="M117.93,183.83l-7,10.17-.93-.64c.71-4.49,4.61-6.86,7-10.23Z" transform="translate(-16.98 -62.83)"/><path d="M115.58,177.58c.25,5.11-4.22,6.16-5.52,9.19C109.3,182.46,112.85,180.83,115.58,177.58Z" transform="translate(-16.98 -62.83)"/><path d="M119.55,200.36,110,211.64l-.93-.76,9.72-11.23Z" transform="translate(-16.98 -62.83)"/><path d="M117.4,208.49l-8.48,11.09L108,219c1.1-1.59,2.13-3.24,3.3-4.78,1.43-1.87,3-3.69,4.52-5.45.24-.27,1-.09,1.5-.14Z" transform="translate(-16.98 -62.83)"/><path d="M137.94,253.19l-15.08-5.83.42-1.11,14.9,5.77Z" transform="translate(-16.98 -62.83)"/><path d="M130.38,245.47,145.67,250C142,250.84,136.6,249.45,130.38,245.47Z" transform="translate(-16.98 -62.83)"/><path d="M132.4,254.37l-12.15-4.44.38-1,12.26,4.61Z" transform="translate(-16.98 -62.83)"/><path d="M147.54,238.88l11.05.92-.07.95-11-.94Z" transform="translate(-16.98 -62.83)"/><path d="M185,177.61l5.71-7,.56.34c-.57,1-1.14,2-1.85,3.23h3.4l.28,1.05-8.18,2.26Z" transform="translate(-16.98 -62.83)"/><path d="M161.06,194l14.51-1.83c.05.39.09.77.13,1.16l-14.45,1.52C161.19,194.52,161.12,194.23,161.06,194Z" transform="translate(-16.98 -62.83)"/><path d="M186.49,183.6l-12.17,3.25-.29-1.11,12.22-3Z" transform="translate(-16.98 -62.83)"/><path d="M168.57,198.09l-13.63-.89,0-.75,13.6.7Z" transform="translate(-16.98 -62.83)"/><path d="M171.47,188.86c1.62.09,3.24.24,4.86.23a11.23,11.23,0,0,1,4.9.54l-9.68.58C171.52,189.76,171.5,189.31,171.47,188.86Z" transform="translate(-16.98 -62.83)"/><path d="M104.31,300.37,92.55,293.6l.57-1,11.76,7Z" transform="translate(-16.98 -62.83)"/><path d="M107.53,299.32l-9.22-6.2.66-1,9.08,6.18Z" transform="translate(-16.98 -62.83)"/><path d="M100.82,301.16l-11.67-6.6.33-.65,11.61,6.44Z" transform="translate(-16.98 -62.83)"/><path d="M84.2,234.85c.14,4-3.08,5.8-5,8.43l-.91-.64c2-2.56,4-5.13,6-7.7Z" transform="translate(-16.98 -62.83)"/><path d="M127.27,186c-1.6-2.85-3.33-5.63-4.75-8.56a16,16,0,0,1-1.15-5c1.95,3.88,3.93,7.74,5.82,11.65a4.69,4.69,0,0,1,0,1.95S127.27,186,127.27,186Z" transform="translate(-16.98 -62.83)"/><path d="M157.92,225.88l-8.32,6.71-.59-.75,8.3-6.73Z" transform="translate(-16.98 -62.83)"/><path d="M784.87,377.7c-3.94-1.5-8.74-2.49-12.55-5-5.77-3.77-6.05-11-.78-15.45,5.73-4.82,12.05-8.95,18.06-13.46,22.3-16.75,35.5-39.5,43.27-65.83,3.53-12,7.75-23.64,15.39-33.76a39,39,0,0,1,25-15.58c7.39-1.29,13.35-4.15,17.48-10.84,3.46-5.59,7.2-11.23,11.86-15.78a64.52,64.52,0,0,1,16.69-12c3.08-1.49,8.12-.43,11.68,1,3.17,1.25,3.28,5,1.54,8.13-1.54,2.78-3.57,3.56-6.88,2.39-1.65-.58-4.27.38-6,1.43a40.89,40.89,0,0,0-16.07,19c-3,7-1.49,14.06,2.64,19.83,8.67,12.15,9.07,25.26,2.56,37.38a224.32,224.32,0,0,1-26.32,39c-20.89,24.61-45.68,44.48-77,54.68C799.13,375,792.39,376,784.87,377.7Zm15-14.86-.09-.11-19.8,7c2.76.13,6.79,1.14,10.42.33a131.29,131.29,0,0,0,22.52-6.75c27.64-11.71,49.59-30.95,68.68-53.65,10.15-12.08,19.28-24.81,24.38-40.1a27.25,27.25,0,0,0-.56-18.7c-1.13-3-4.26-5.32-6.48-7.94l-1,.87c5.2,7,5.24,7.21,3,11.5l-.86-8.09c-1.71,7.05-3,12.33-4.28,17.62,1.8-17.84,1.8-17.84-1.51-21.42-.92,7-1.87,14.19-2.82,21.38l-1-.12q1.14-11.76,2.29-23.53L891,241q-1.15,7.84-2.3,15.68a24.94,24.94,0,0,1-.57-6.62c.08-5.13,2.08-11.24-6.3-11.92a1.91,1.91,0,0,1-1.3-.95c-2.14-4.47-6.13-3.83-9.33-2.54-5,2-10.3,4.2-14.19,7.73-11.15,10.12-15.36,24.24-19.72,38-9.63,30.44-25.47,56.27-53.13,73.69a40.73,40.73,0,0,0-7.59,6.26c-1.08,1.13-1.19,3.18-1.74,4.81,1.79.53,3.67,1.74,5.34,1.48C786.76,365.64,793.28,364.16,799.82,362.84Zm89.25-133.07.89,1c12.38-11.67,16.77-32,37.46-34.67-2.36-3.69-5.4-3.61-7.91-1.84-5.17,3.67-10.82,7.16-14.73,12C898.85,213.53,894.24,221.88,889.07,229.77Z" transform="translate(-16.98 -62.83)"/><path d="M896,282.61c-9,17.76-22.32,31.64-35.73,45.49Z" transform="translate(-16.98 -62.83)"/><path d="M846.66,335.92c13.67-12.59,23.9-27.65,31.86-44.34C871.86,309.21,861.93,324.48,846.66,335.92Z" transform="translate(-16.98 -62.83)"/><path d="M893.12,273.27c-3.45,11.76-9.42,22.2-17,31.81Z" transform="translate(-16.98 -62.83)"/><path d="M799.82,362.84,820,350.61c-6,5.27-12.19,10.36-20.29,12.12Z" transform="translate(-16.98 -62.83)"/><path d="M906.11,263.91l-7.58,17.45-1.29-.54q3.78-8.64,7.54-17.3Z" transform="translate(-16.98 -62.83)"/><path d="M775.08,495.38c3.16,1.24,7.83,1.68,9,4,1.14,2.12-.85,6.5-2.41,9.37-4,7.38-18.06,14-26.06,12.41-1.32-.27-3.16-2.75-3.12-4.17C752.79,505.72,763.35,496,775.08,495.38Zm-16.66,21.93c7.92-.06,18.54-6.31,21.77-11.73,1.89-3.17.39-4.42-2.46-5.18-8.35-2.25-19.14,4.74-20.57,13.52C757,515.12,758.1,516.52,758.42,517.31Z" transform="translate(-16.98 -62.83)"/><path d="M732.74,73.64c0-7.21,2.18-8.53,8.57-4.9,8.57,4.88,15.14,11.39,15.79,21.94.33,5.27-1.73,6.58-6.76,4.81C739.91,91.83,732.72,82.91,732.74,73.64ZM746.62,85.4l5.73,7.83c.18-11.81-5.52-19.43-15.69-21.85-1.58,8.15,2.46,15.06,10,17Z" transform="translate(-16.98 -62.83)"/><path d="M50,616c-2.45,4.31-4,9.6-7.55,12.69-4.7,4.14-10.65,7.2-16.52,9.55s-9.53-1.26-8.83-7.57c1.22-11,14.19-21.88,25.24-21.18C46.06,609.7,48.7,611.19,50,616Zm-6.25-2.32c-12.46,1.06-21.1,9.12-22.07,19.89,7.87,1.38,18.3-6.12,21.5-15.89l-11.55,7.6-.76-1.1Z" transform="translate(-16.98 -62.83)"/><path d="M98.71,843.87c.35-16.88,7.89-29.74,21.81-39.16,5-3.42,10.35-6.8,14.47-11.2,6.13-6.53,7.49-14.71,4.16-23.18-2-5.07-4.92-9.79-6.78-14.9-.84-2.3-1.14-6.23.18-7.54,1.69-1.67,5.5-2.44,8-1.85,5.81,1.4,9,5.83,10.1,11.73.92,4.88,1.66,9.82,3,14.61,3,11.11,9.84,18.23,21.34,21.3,22,5.86,36.77,30.12,32.62,52.57-2.46,13.33-14.56,24.9-27.86,27.29a29.15,29.15,0,0,0-10.09,4.36c-8.39,5.36-16.85,6.44-25.94,1.92-1.9-1-4.38-1.73-6.37-1.37-20.72,3.69-37.86-10-38.57-31.09C98.67,846.2,98.71,845,98.71,843.87Zm43.08-38c-2.71,8.89-5.64,16.82-7.51,25-2.59,11.37-2.5,22.84,2.54,33.66,3.3,7.11,9.07,11.59,17.13,11.71,8.41.13,15.28-3.07,18.74-11.33,6.66-15.88,7.53-31.7-.64-47.42-2.25-4.34-4.23-8.82-6.33-13.23,16.29,18.41,22,39.09,12.23,63.44,2.7-.53,4.34-.61,5.8-1.17,10.25-3.95,18.68-16.16,18.88-27.18.31-16.63-11-33.66-26.63-39.77-7.31-2.86-14.82-5.39-19.66-12-2.49-3.41-4.24-7.36-6.27-11-.12,12.73-1.51,18.92-5.54,22.55,6.86-16,1.28-30.65-2-45.59,1.22,3.45,2.43,6.91,3.87,11,.13-7.36-1.89-11.94-6.46-14.59-1.3-.75-3-.79-4.54-1.15.05,1.68-.41,3.59.23,5,1.85,4.07,4.35,7.85,6.23,11.91,6.67,14.43,3.21,28-9.46,37.53-3.32,2.49-7.17,4.4-10.12,7.25-4.6,4.44-9.5,9-12.77,14.34-8.47,14-6.49,32.38,4.34,41.77a22.45,22.45,0,0,0,21.1,5.12C123.19,848.25,129.6,827.09,141.79,805.88Z" transform="translate(-16.98 -62.83)"/><path d="M109.93,847.13c1.73,4.28,2.87,10.16,6.16,14.36,3.1,4,8.45,6.18,12.43,8.9C116.6,868.15,108.86,858,109.93,847.13Z" transform="translate(-16.98 -62.83)"/><path d="M111.28,861.88c-6.6-10.45-6.32-21.21-1.54-32.16C106.62,840.61,106.21,851.36,111.28,861.88Z" transform="translate(-16.98 -62.83)"/><path d="M122.33,862.84c-5.8-6-6.75-13.54-2.69-21.33C117.46,849,118.85,856.06,122.33,862.84Z" transform="translate(-16.98 -62.83)"/><path d="M135,848.14c2.08,6.34,4.45,13.58,6.54,20C137.35,864.31,134.29,855.08,135,848.14Z" transform="translate(-16.98 -62.83)"/><path d="M175.37,841.33,168,818.81l1.18-.39q3.71,11.18,7.39,22.36Z" transform="translate(-16.98 -62.83)"/><path d="M199.49,844.55c-.89-6.84-1.84-14.2-2.9-22.34C199.47,830.08,202,837.22,199.49,844.55Z" transform="translate(-16.98 -62.83)"/><path d="M142.68,853.92c.35,7.79,4.14,13.45,10.28,18.07C146.25,870.07,141.26,861.57,142.68,853.92Z" transform="translate(-16.98 -62.83)"/><path d="M170.06,850.41Q166,861.18,162,872l-1.31-.47,8.19-21.32Z" transform="translate(-16.98 -62.83)"/><path d="M121.44,849.11l7.16,17C124.44,863.58,121,855.9,121.44,849.11Z" transform="translate(-16.98 -62.83)"/><path d="M190.44,859.6c2.09-6.37,4.2-12.81,5.92-18C197.35,846.33,195.4,853,190.44,859.6Z" transform="translate(-16.98 -62.83)"/><path d="M191.38,827,182,812C186.27,814,190,819.57,191.38,827Z" transform="translate(-16.98 -62.83)"/><path d="M170.28,862.6q1.54-10.85,3.1-21.69l1,.13-2.84,22Z" transform="translate(-16.98 -62.83)"/><path d="M146.34,855.63l10,15C150.66,867.31,148.43,862.29,146.34,855.63Z" transform="translate(-16.98 -62.83)"/></g></svg>